<svg width="23" height="22" viewBox="0 0 23 22" fill="currentColor" xmlns="http://www.w3.org/2000/svg">
<path d="M11.6152 0C8.69785 4.34724e-08 5.89996 1.15893 3.83706 3.22183C1.77416 5.28473 0.615234 8.08262 0.615234 11C0.615234 13.9174 1.77416 16.7153 3.83706 18.7782C5.89996 20.8411 8.69785 22 11.6152 22C12.6297 22 13.4486 21.1811 13.4486 20.1667C13.4486 19.69 13.2652 19.2622 12.9719 18.9322C12.6908 18.6144 12.5075 18.1867 12.5075 17.7222C12.5075 16.7078 13.3263 15.8889 14.3408 15.8889H16.5041C19.8775 15.8889 22.6152 13.1511 22.6152 9.77778C22.6152 4.37556 17.6897 0 11.6152 0ZM4.89301 11C3.87857 11 3.05968 10.1811 3.05968 9.16667C3.05968 8.15222 3.87857 7.33333 4.89301 7.33333C5.90746 7.33333 6.72635 8.15222 6.72635 9.16667C6.72635 10.1811 5.90746 11 4.89301 11ZM8.55968 6.11111C7.54523 6.11111 6.72635 5.29222 6.72635 4.27778C6.72635 3.26333 7.54523 2.44444 8.55968 2.44444C9.57412 2.44444 10.393 3.26333 10.393 4.27778C10.393 5.29222 9.57412 6.11111 8.55968 6.11111ZM14.6708 6.11111C13.6563 6.11111 12.8375 5.29222 12.8375 4.27778C12.8375 3.26333 13.6563 2.44444 14.6708 2.44444C15.6852 2.44444 16.5041 3.26333 16.5041 4.27778C16.5041 5.29222 15.6852 6.11111 14.6708 6.11111ZM18.3375 11C17.323 11 16.5041 10.1811 16.5041 9.16667C16.5041 8.15222 17.323 7.33333 18.3375 7.33333C19.3519 7.33333 20.1708 8.15222 20.1708 9.16667C20.1708 10.1811 19.3519 11 18.3375 11Z"/>
</svg>
