<svg width="23" height="22" viewBox="0 0 23 22" fill="currentColor" xmlns="http://www.w3.org/2000/svg">
<path d="M20.1708 13.4444C19.6004 13.4444 19.03 13.6889 18.6226 14.0148L15.1189 11.8963C15.2004 11.5704 15.2819 11.3259 15.2819 11C15.2819 10.6741 15.2004 10.3482 15.1189 10.1037L18.6226 7.98519C19.03 8.31111 19.6004 8.55556 20.1708 8.55556C21.556 8.55556 22.6152 7.4963 22.6152 6.11111C22.6152 4.72593 21.556 3.66667 20.1708 3.66667C18.7856 3.66667 17.7263 4.72593 17.7263 6.11111C17.7263 6.27408 17.7263 6.43704 17.8078 6.6L14.3041 8.71852C13.7338 8.06667 12.9189 7.74074 12.0226 7.74074C11.5338 7.74074 11.1263 7.82222 10.7189 8.06667L7.62264 4.15556C7.7856 3.74815 7.94857 3.34074 7.94857 2.85185C7.94857 1.46667 6.88931 0.40741 5.50412 0.40741C4.11894 0.40741 3.05968 1.46667 3.05968 2.85185C3.05968 4.23704 4.11894 5.2963 5.50412 5.2963C5.74857 5.2963 6.07449 5.21482 6.31894 5.13334L9.41523 9.04445C9.17079 9.37037 9.00783 9.77778 8.84486 10.1852H5.34116C5.01523 9.20741 4.11894 8.55556 3.05968 8.55556C1.67449 8.55556 0.615234 9.61482 0.615234 11C0.615234 12.3852 1.67449 13.4444 3.05968 13.4444C4.11894 13.4444 5.01523 12.7926 5.34116 11.8148H8.84486C8.92635 12.2222 9.17079 12.6296 9.41523 12.9556L6.31894 16.8667C6.07449 16.7852 5.74857 16.7037 5.50412 16.7037C4.11894 16.7037 3.05968 17.763 3.05968 19.1482C3.05968 20.5333 4.11894 21.5926 5.50412 21.5926C6.88931 21.5926 7.94857 20.5333 7.94857 19.1482C7.94857 18.6593 7.7856 18.2519 7.54116 17.8444L10.6375 13.9333C11.0449 14.0963 11.5338 14.2593 11.9412 14.2593C12.8375 14.2593 13.6523 13.9333 14.2226 13.2815L17.7263 15.4C17.7263 15.563 17.6449 15.7259 17.6449 15.8889C17.6449 17.2741 18.7041 18.3333 20.0893 18.3333C21.4745 18.3333 22.5338 17.2741 22.5338 15.8889C22.5338 14.5037 21.556 13.4444 20.1708 13.4444ZM20.1708 5.2963C20.6597 5.2963 20.9856 5.62222 20.9856 6.11111C20.9856 6.6 20.6597 6.92593 20.1708 6.92593C19.6819 6.92593 19.356 6.6 19.356 6.11111C19.356 5.62222 19.6819 5.2963 20.1708 5.2963ZM4.68931 2.85185C4.68931 2.36297 5.01523 2.03704 5.50412 2.03704C5.99301 2.03704 6.31894 2.36297 6.31894 2.85185C6.31894 3.34074 5.99301 3.66667 5.50412 3.66667C5.01523 3.66667 4.68931 3.34074 4.68931 2.85185ZM3.05968 11.8148C2.57079 11.8148 2.24486 11.4889 2.24486 11C2.24486 10.5111 2.57079 10.1852 3.05968 10.1852C3.54857 10.1852 3.87449 10.5111 3.87449 11C3.87449 11.4889 3.54857 11.8148 3.05968 11.8148ZM5.50412 19.963C5.01523 19.963 4.68931 19.637 4.68931 19.1482C4.68931 18.6593 5.01523 18.3333 5.50412 18.3333C5.99301 18.3333 6.31894 18.6593 6.31894 19.1482C6.31894 19.637 5.99301 19.963 5.50412 19.963ZM12.0226 12.6296C11.1263 12.6296 10.393 11.8963 10.393 11C10.393 10.1037 11.1263 9.37037 12.0226 9.37037C12.9189 9.37037 13.6523 10.1037 13.6523 11C13.6523 11.8963 12.9189 12.6296 12.0226 12.6296ZM20.1708 16.7037C19.6819 16.7037 19.356 16.3778 19.356 15.8889C19.356 15.4 19.6819 15.0741 20.1708 15.0741C20.6597 15.0741 20.9856 15.4 20.9856 15.8889C20.9856 16.3778 20.6597 16.7037 20.1708 16.7037Z"/>
</svg>
