<svg width="21" height="22" viewBox="0 0 21 22" fill="currentColor" xmlns="http://www.w3.org/2000/svg">
<path d="M10.2105 0C10.522 0.000345531 10.8217 0.11963 11.0482 0.333481C11.2747 0.547333 11.411 0.839609 11.4293 1.15059C11.4475 1.46158 11.3464 1.7678 11.1464 2.00668C10.9465 2.24557 10.6629 2.3991 10.3535 2.43589L10.2105 2.44444H4.09941C3.80004 2.44448 3.51111 2.55439 3.2874 2.75332C3.06369 2.95225 2.92076 3.22636 2.88574 3.52367L2.87718 3.66667V18.3333C2.87722 18.6327 2.98713 18.9216 3.18606 19.1453C3.38499 19.3691 3.6591 19.512 3.95641 19.547L4.09941 19.5556H9.59941C9.91092 19.5559 10.2106 19.6752 10.4371 19.889C10.6636 20.1029 10.7999 20.3952 10.8182 20.7061C10.8364 21.0171 10.7352 21.3234 10.5353 21.5622C10.3354 21.8011 10.0517 21.9547 9.7424 21.9914L9.59941 22H4.09941C3.16415 22.0001 2.26422 21.6427 1.58375 21.0011C0.903286 20.3595 0.493719 19.4821 0.438851 18.5484L0.432739 18.3333V3.66667C0.432687 2.73141 0.790026 1.83148 1.43164 1.15101C2.07326 0.470547 2.95065 0.0609797 3.88429 0.00611125L4.09941 0H10.2105ZM17.1857 6.67822L20.6422 10.1359C20.8713 10.3651 21 10.6759 21 11C21 11.3241 20.8713 11.6349 20.6422 11.8641L17.1857 15.3218C16.9564 15.551 16.6454 15.6796 16.3212 15.6795C15.997 15.6794 15.6861 15.5505 15.4569 15.3212C15.2277 15.0918 15.099 14.7808 15.0992 14.4566C15.0993 14.1324 15.2282 13.8215 15.4575 13.5923L16.8276 12.2222H10.2105C9.88636 12.2222 9.57549 12.0935 9.34628 11.8642C9.11706 11.635 8.98829 11.3242 8.98829 11C8.98829 10.6758 9.11706 10.365 9.34628 10.1358C9.57549 9.90655 9.88636 9.77778 10.2105 9.77778H16.8276L15.4575 8.40767C15.2282 8.17849 15.0993 7.8676 15.0992 7.54338C15.099 7.21916 15.2277 6.90817 15.4569 6.67883C15.6861 6.4495 15.997 6.32059 16.3212 6.32047C16.6454 6.32036 16.9564 6.44905 17.1857 6.67822Z"/>
</svg>
