<svg width="23" height="22" viewBox="0 0 23 22" fill="currentColor" xmlns="http://www.w3.org/2000/svg">
<path d="M1.83746 21.3889C1.49116 21.3889 1.20109 21.2715 0.967234 21.0369C0.732568 20.803 0.615234 20.5129 0.615234 20.1666C0.615234 19.8203 0.732568 19.5303 0.967234 19.2964C1.20109 19.0618 1.49116 18.9444 1.83746 18.9444H14.0597C14.406 18.9444 14.6965 19.0618 14.9311 19.2964C15.165 19.5303 15.2819 19.8203 15.2819 20.1666C15.2819 20.5129 15.165 20.803 14.9311 21.0369C14.6965 21.2715 14.406 21.3889 14.0597 21.3889H1.83746ZM16.5041 12.8333C14.8134 12.8333 13.3724 12.2373 12.1811 11.0452C10.989 9.85394 10.393 8.41294 10.393 6.7222C10.393 5.03145 10.989 3.59045 12.1811 2.3992C13.3724 1.20712 14.8134 0.611084 16.5041 0.611084C18.1949 0.611084 19.6363 1.20712 20.8283 2.3992C22.0196 3.59045 22.6152 5.03145 22.6152 6.7222C22.6152 8.41294 22.0196 9.85394 20.8283 11.0452C19.6363 12.2373 18.1949 12.8333 16.5041 12.8333ZM1.83746 11.6111C1.49116 11.6111 1.20109 11.4938 0.967234 11.2591C0.732568 11.0252 0.615234 10.7352 0.615234 10.3889C0.615234 10.0426 0.732568 9.75208 0.967234 9.51742C1.20109 9.28357 1.49116 9.16664 1.83746 9.16664H8.31523C8.45783 9.61479 8.62079 10.0426 8.80412 10.45C8.98746 10.8574 9.21153 11.2444 9.47635 11.6111H1.83746ZM1.83746 16.5C1.49116 16.5 1.20109 16.3826 0.967234 16.148C0.732568 15.9141 0.615234 15.624 0.615234 15.2778C0.615234 14.9315 0.732568 14.641 0.967234 14.4063C1.20109 14.1725 1.49116 14.0555 1.83746 14.0555H12.1041C12.5726 14.3407 13.0717 14.5799 13.6013 14.773C14.131 14.9669 14.6912 15.1046 15.2819 15.1861V15.2778C15.2819 15.624 15.165 15.9141 14.9311 16.148C14.6965 16.3826 14.406 16.5 14.0597 16.5H1.83746ZM16.5041 10.3889C16.6671 10.3889 16.8097 10.3278 16.9319 10.2055C17.0541 10.0833 17.1152 9.94071 17.1152 9.77775V6.11108C17.1152 5.94812 17.0541 5.80553 16.9319 5.68331C16.8097 5.56108 16.6671 5.49997 16.5041 5.49997C16.3412 5.49997 16.1986 5.56108 16.0763 5.68331C15.9541 5.80553 15.893 5.94812 15.893 6.11108V9.77775C15.893 9.94071 15.9541 10.0833 16.0763 10.2055C16.1986 10.3278 16.3412 10.3889 16.5041 10.3889ZM16.5041 4.27775C16.6671 4.27775 16.8097 4.21664 16.9319 4.09442C17.0541 3.9722 17.1152 3.8296 17.1152 3.66664C17.1152 3.50368 17.0541 3.36108 16.9319 3.23886C16.8097 3.11664 16.6671 3.05553 16.5041 3.05553C16.3412 3.05553 16.1986 3.11664 16.0763 3.23886C15.9541 3.36108 15.893 3.50368 15.893 3.66664C15.893 3.8296 15.9541 3.9722 16.0763 4.09442C16.1986 4.21664 16.3412 4.27775 16.5041 4.27775Z"/>
</svg>
