<svg width="19" height="18" viewBox="0 0 19 18" fill="currentColor" xmlns="http://www.w3.org/2000/svg">
<path d="M13.24 8.50938L14.81 6.93938L11.06 3.18938L9.49 4.75938L5.35 0.62938C4.57 -0.15062 3.3 -0.15062 2.52 0.62938L0.62 2.52938C-0.16 3.30938 -0.16 4.57938 0.62 5.35938L4.75 9.48938L0.15 14.0994C0.0500001 14.1994 0 14.3194 0 14.4594V17.4994C0 17.7794 0.22 17.9994 0.5 17.9994H3.54C3.67 17.9994 3.8 17.9494 3.89 17.8494L8.51 13.2294L12.64 17.3594C13.96 18.6794 15.4 17.4294 15.47 17.3594L17.37 15.4594C18.15 14.6794 18.15 13.4094 17.37 12.6294L13.24 8.50938ZM6.18 8.06938L2.04 3.93938L3.93 2.03938L5.2 3.30938L4.73 3.79938C4.54302 3.98636 4.43798 4.23995 4.43798 4.50438C4.43798 4.76881 4.54302 5.0224 4.73 5.20938C4.91698 5.39636 5.17057 5.5014 5.435 5.5014C5.69943 5.5014 5.95302 5.39636 6.14 5.20938L6.62 4.72938L8.07 6.17938L6.18 8.06938ZM14.06 15.9594L9.93 11.8294L11.83 9.92938L13.28 11.3794L12.8 11.8594C12.7074 11.952 12.634 12.0619 12.5839 12.1828C12.5338 12.3038 12.508 12.4334 12.508 12.5644C12.508 12.6953 12.5338 12.825 12.5839 12.9459C12.634 13.0669 12.7074 13.1768 12.8 13.2694C12.8926 13.362 13.0025 13.4354 13.1235 13.4855C13.2444 13.5356 13.3741 13.5614 13.505 13.5614C13.6359 13.5614 13.7656 13.5356 13.8865 13.4855C14.0075 13.4354 14.1174 13.362 14.21 13.2694L14.69 12.7894L15.96 14.0594L14.06 15.9594ZM17.71 4.03938C17.8027 3.94687 17.8762 3.83698 17.9264 3.716C17.9766 3.59503 18.0024 3.46535 18.0024 3.33438C18.0024 3.20341 17.9766 3.07373 17.9264 2.95276C17.8762 2.83178 17.8027 2.72189 17.71 2.62938L15.37 0.289379C14.9 -0.180621 14.25 -0.000620574 13.96 0.289379L12.13 2.11938L15.88 5.86938L17.71 4.03938Z"/>
</svg>
