<svg width="23" height="22" viewBox="0 0 23 22" fill="currentColor" xmlns="http://www.w3.org/2000/svg">
<path d="M5.32952 3.92857V0H3.75809C2.92455 0 2.12516 0.331121 1.53576 0.920521C0.946356 1.50992 0.615234 2.30932 0.615234 3.14286V15.7143C0.615234 16.5478 0.946356 17.3472 1.53576 17.9366C2.12516 18.526 2.92455 18.8571 3.75809 18.8571V11.7826C3.75809 10.4783 4.81566 9.42857 6.11523 9.42857H13.9724C14.5975 9.42857 15.1971 9.67691 15.6391 10.119C16.0812 10.561 16.3295 11.1606 16.3295 11.7857V18.8571C17.1631 18.8571 17.9625 18.526 18.5519 17.9366C19.1413 17.3472 19.4724 16.5478 19.4724 15.7143V5.69014C19.4722 4.85667 19.141 4.0574 18.5515 3.46814L16.0042 0.920857C15.415 0.331416 14.6157 0.000178003 13.7822 0H13.1867V3.92857C13.1867 4.55372 12.9383 5.15327 12.4963 5.59532C12.0542 6.03737 11.4547 6.28571 10.8295 6.28571H7.68666C7.06151 6.28571 6.46196 6.03737 6.01991 5.59532C5.57786 5.15327 5.32952 4.55372 5.32952 3.92857ZM6.90095 3.92857V0H11.6152V3.92857C11.6152 4.13695 11.5325 4.3368 11.3851 4.48415C11.2378 4.6315 11.0379 4.71428 10.8295 4.71428H7.68666C7.47828 4.71428 7.27843 4.6315 7.13108 4.48415C6.98373 4.3368 6.90095 4.13695 6.90095 3.92857ZM14.7581 18.8571H5.32952V11.7826C5.32952 11.3504 5.67995 11 6.11523 11H13.9724C14.1808 11 14.3806 11.0828 14.528 11.2301C14.6753 11.3775 14.7581 11.5773 14.7581 11.7857V18.8571ZM9.25809 22C7.8182 22.0021 6.43529 21.4376 5.40809 20.4286H17.1152C18.1572 20.4286 19.1564 20.0147 19.8931 19.2779C20.6299 18.5412 21.0438 17.5419 21.0438 16.5V4.79286C22.0149 5.786 22.6152 7.14528 22.6152 8.64285V16.5C22.6152 17.9587 22.0358 19.3576 21.0043 20.3891C19.9729 21.4205 18.5739 22 17.1152 22H9.25809Z"/>
</svg>
