<svg width="22" height="22" viewBox="0 0 22 22" fill="currentColor" xmlns="http://www.w3.org/2000/svg">
<path d="M21.1951 4.4729L20.7112 4.19354C20.768 3.89295 20.768 3.58439 20.7112 3.2838L21.1951 3.00444C21.386 2.89426 21.5253 2.71278 21.5824 2.4999C21.6394 2.28703 21.6096 2.06021 21.4994 1.86933C21.3893 1.67846 21.2078 1.53917 20.9949 1.4821C20.782 1.42504 20.5552 1.45488 20.3643 1.56505L19.8793 1.84545C19.6472 1.64632 19.3804 1.49176 19.0921 1.38954V0.830815C19.0921 0.610469 19.0046 0.399148 18.8488 0.24334C18.693 0.087532 18.4817 0 18.2613 0C18.041 0 17.8297 0.087532 17.6739 0.24334C17.518 0.399148 17.4305 0.610469 17.4305 0.830815V1.38954C17.1423 1.49176 16.8754 1.64632 16.6433 1.84545L16.1583 1.56505C16.0638 1.5105 15.9595 1.47509 15.8513 1.46086C15.7431 1.44663 15.6332 1.45385 15.5278 1.4821C15.4224 1.51036 15.3235 1.5591 15.237 1.62554C15.1504 1.69198 15.0778 1.77482 15.0232 1.86933C14.9687 1.96385 14.9333 2.06818 14.919 2.17637C14.9048 2.28456 14.912 2.3945 14.9403 2.4999C14.9685 2.60531 15.0173 2.70411 15.0837 2.79068C15.1502 2.87725 15.233 2.94988 15.3275 3.00444L15.8115 3.2838C15.7547 3.58439 15.7547 3.89295 15.8115 4.19354L15.3275 4.4729C15.169 4.56431 15.0452 4.70546 14.9751 4.87447C14.905 5.04348 14.8927 5.23088 14.9401 5.4076C14.9874 5.58432 15.0918 5.74047 15.2369 5.85182C15.3821 5.96316 15.56 6.02348 15.7429 6.02341C15.8888 6.02386 16.0322 5.98551 16.1583 5.91229L16.6433 5.63189C16.8754 5.83102 17.1423 5.98558 17.4305 6.0878V6.64652C17.4305 6.86687 17.518 7.07819 17.6739 7.234C17.8297 7.3898 18.041 7.47734 18.2613 7.47734C18.4817 7.47734 18.693 7.3898 18.8488 7.234C19.0046 7.07819 19.0921 6.86687 19.0921 6.64652V6.0878C19.3804 5.98558 19.6472 5.83102 19.8793 5.63189L20.3643 5.91229C20.4905 5.98551 20.6339 6.02386 20.7797 6.02341C20.9627 6.02348 21.1406 5.96316 21.2857 5.85182C21.4309 5.74047 21.5352 5.58432 21.5826 5.4076C21.6299 5.23088 21.6176 5.04348 21.5476 4.87447C21.4775 4.70546 21.3536 4.56431 21.1951 4.4729ZM17.4305 3.73867C17.4305 3.57435 17.4792 3.41372 17.5705 3.27709C17.6618 3.14047 17.7916 3.03398 17.9434 2.9711C18.0952 2.90821 18.2623 2.89176 18.4234 2.92382C18.5846 2.95587 18.7326 3.035 18.8488 3.15119C18.965 3.26739 19.0441 3.41542 19.0762 3.57658C19.1082 3.73775 19.0918 3.9048 19.0289 4.05661C18.966 4.20842 18.8595 4.33818 18.7229 4.42947C18.5863 4.52076 18.4257 4.56948 18.2613 4.56948C18.041 4.56948 17.8297 4.48195 17.6739 4.32614C17.518 4.17034 17.4305 3.95901 17.4305 3.73867ZM20.4786 8.73498C20.2613 8.77135 20.0673 8.89255 19.9393 9.07192C19.8114 9.25129 19.7599 9.47414 19.7963 9.69146C19.8806 10.1953 19.923 10.7052 19.923 11.216C19.9249 13.4532 19.1027 15.6127 17.6133 17.282C16.6867 15.9393 15.3838 14.9005 13.8684 14.2963C14.6824 13.6551 15.2764 12.7763 15.5678 11.7819C15.8591 10.7875 15.8334 9.72707 15.4941 8.74801C15.1548 7.76895 14.5189 6.91995 13.6748 6.31907C12.8306 5.71818 11.8202 5.39529 10.784 5.39529C9.74782 5.39529 8.73739 5.71818 7.89324 6.31907C7.04908 6.91995 6.41315 7.76895 6.07388 8.74801C5.73461 9.72707 5.70887 10.7875 6.00023 11.7819C6.2916 12.7763 6.88559 13.6551 7.69959 14.2963C6.1842 14.9005 4.88129 15.9393 3.95469 17.282C2.78607 15.9651 2.02271 14.3387 1.7564 12.5983C1.49009 10.8579 1.73218 9.07767 2.45355 7.47159C3.17492 5.86551 4.34486 4.502 5.8227 3.54499C7.30054 2.58799 9.02335 2.07824 10.784 2.07704C11.2948 2.07696 11.8047 2.11934 12.3085 2.20374C12.5249 2.23787 12.7459 2.1852 12.9236 2.05719C13.1013 1.92918 13.2213 1.73618 13.2575 1.52017C13.2936 1.30416 13.243 1.08261 13.1166 0.903731C12.9903 0.724847 12.7984 0.603094 12.5827 0.564954C10.3265 0.185391 8.00797 0.532692 5.96198 1.55671C3.91598 2.58073 2.24837 4.22849 1.1999 6.26206C0.151432 8.29563 -0.22363 10.6098 0.128867 12.8704C0.481363 15.1311 1.54318 17.2212 3.161 18.839C4.77882 20.4568 6.86894 21.5186 9.12957 21.8711C11.3902 22.2236 13.7044 21.8486 15.7379 20.8001C17.7715 19.7516 19.4193 18.084 20.4433 16.038C21.4673 13.992 21.8146 11.6735 21.435 9.41729C21.3987 9.19998 21.2775 9.00601 21.0981 8.87806C20.9187 8.7501 20.6959 8.69864 20.4786 8.73498ZM7.46073 10.3852C7.46073 9.72791 7.65564 9.08539 8.0208 8.53889C8.38597 7.99238 8.90499 7.56643 9.51224 7.3149C10.1195 7.06337 10.7877 6.99756 11.4323 7.12578C12.077 7.25401 12.6691 7.57052 13.1339 8.03529C13.5987 8.50006 13.9152 9.09221 14.0434 9.73685C14.1716 10.3815 14.1058 11.0497 13.8543 11.6569C13.6028 12.2642 13.1768 12.7832 12.6303 13.1484C12.0838 13.5135 11.4413 13.7085 10.784 13.7085C9.90261 13.7085 9.05733 13.3583 8.43409 12.7351C7.81086 12.1119 7.46073 11.2666 7.46073 10.3852ZM5.1843 18.4337C5.78533 17.4937 6.61331 16.7202 7.59192 16.1843C8.57053 15.6485 9.66829 15.3676 10.784 15.3676C11.8997 15.3676 12.9975 15.6485 13.9761 16.1843C14.9547 16.7202 15.7827 17.4937 16.3837 18.4337C14.7826 19.6789 12.8122 20.3549 10.784 20.3549C8.75574 20.3549 6.78535 19.6789 5.1843 18.4337Z"/>
</svg>
