<svg>
    <symbol id="analyse" viewBox="0 0 20 22" xmlns="http://www.w3.org/2000/svg">
        <g>
            <path d="M13.8613 2.629V19.129C13.8613 20.966 15.1153 22 16.4903 22C17.7443 22 19.1193 21.131 19.1193 19.129V2.75C19.1193 1.056 17.8653 0 16.4903 0C15.1153 0 13.8613 1.166 13.8613 2.629ZM6.98633 11V19.129C6.98633 20.977 8.26233 22 9.61533 22C10.8693 22 12.2443 21.131 12.2443 19.129V11.121C12.2443 9.427 10.9903 8.371 9.61533 8.371C8.24033 8.371 6.98633 9.537 6.98633 11ZM2.74033 16.753C4.19233 16.753 5.36933 17.93 5.36933 19.371C5.36933 20.0683 5.09235 20.737 4.59931 21.23C4.10628 21.723 3.43758 22 2.74033 22C2.04307 22 1.37438 21.723 0.881344 21.23C0.388311 20.737 0.111328 20.0683 0.111328 19.371C0.111328 17.93 1.28833 16.753 2.74033 16.753Z"/>
        </g>
    </symbol>

    <symbol id="arrowDown" viewBox="0 0 16 10" xmlns="http://www.w3.org/2000/svg">
        <g>
            <path d="M0.751151 3.75199C0.0924759 3.09331 -0.054512 2.33965 0.310185 1.491C0.673496 0.640961 1.32316 0.215942 2.25917 0.215942L12.9713 0.215942C13.9073 0.215942 14.557 0.640961 14.9203 1.491C15.285 2.33965 15.138 3.09331 14.4793 3.75199L9.07125 9.16005C8.86325 9.36805 8.63791 9.52406 8.39524 9.62806C8.15257 9.73206 7.89257 9.78406 7.61523 9.78406C7.3379 9.78406 7.07789 9.73206 6.83523 9.62806C6.59256 9.52406 6.36722 9.36805 6.15922 9.16005L0.751151 3.75199Z"/>
        </g>
    </symbol>

    <symbol id="arrowsSide" viewBox="0 0 23 14" xmlns="http://www.w3.org/2000/svg">
        <g>
            <path d="M7.82704 11.4769L3.35011 6.99999L7.82704 2.52306C7.93338 2.418 8.01781 2.29287 8.07544 2.15494C8.13306 2.017 8.16273 1.869 8.16273 1.71951C8.16273 1.57002 8.13306 1.42202 8.07544 1.28408C8.01781 1.14615 7.93338 1.02102 7.82704 0.915961C7.72197 0.809617 7.59685 0.725185 7.45891 0.66756C7.32098 0.609934 7.17297 0.580261 7.02349 0.580261C6.874 0.580261 6.72599 0.609934 6.58806 0.66756C6.45012 0.725185 6.325 0.809617 6.21993 0.915961L0.950939 6.18496C0.844522 6.29115 0.760095 6.4173 0.70249 6.55617C0.644885 6.69504 0.615234 6.8439 0.615234 6.99425C0.615234 7.14459 0.644885 7.29345 0.70249 7.43232C0.760095 7.57119 0.844522 7.69734 0.950939 7.80354L6.21993 13.084C6.66763 13.5317 7.37934 13.5317 7.82704 13.084C7.93338 12.9789 8.01781 12.8538 8.07544 12.7159C8.13306 12.5779 8.16273 12.4299 8.16273 12.2805C8.16273 12.131 8.13306 11.983 8.07544 11.845C8.01781 11.7071 7.93338 11.582 7.82704 11.4769ZM15.4034 11.4769L19.8803 6.99999L15.4034 2.52306C15.297 2.418 15.2126 2.29287 15.155 2.15494C15.0973 2.017 15.0677 1.869 15.0677 1.71951C15.0677 1.57002 15.0973 1.42202 15.155 1.28408C15.2126 1.14615 15.297 1.02102 15.4034 0.915961C15.5084 0.809617 15.6336 0.725185 15.7715 0.66756C15.9094 0.609934 16.0574 0.580261 16.2069 0.580261C16.3564 0.580261 16.5044 0.609934 16.6423 0.66756C16.7803 0.725185 16.9054 0.809617 17.0105 0.915961L22.2795 6.18496C22.7272 6.63265 22.7272 7.35584 22.2795 7.80354L17.0105 13.084C16.9054 13.1904 16.7803 13.2748 16.6423 13.3324C16.5044 13.39 16.3564 13.4197 16.2069 13.4197C16.0574 13.4197 15.9094 13.39 15.7715 13.3324C15.6336 13.2748 15.5084 13.1904 15.4034 13.084C15.297 12.9789 15.2126 12.8538 15.155 12.7159C15.0973 12.5779 15.0677 12.4299 15.0677 12.2805C15.0677 12.131 15.0973 11.983 15.155 11.845C15.2126 11.7071 15.297 11.582 15.4034 11.4769Z"/>
        </g>
    </symbol>

    <symbol id="calendar" viewBox="0 0 23 22" xmlns="http://www.w3.org/2000/svg">
        <g>
            <path d="M6.11523 0.6875C6.11523 0.505164 6.0428 0.330295 5.91387 0.201364C5.78494 0.0724328 5.61007 0 5.42773 0C5.2454 0 5.07053 0.0724328 4.9416 0.201364C4.81267 0.330295 4.74023 0.505164 4.74023 0.6875V1.375H3.36523C2.63589 1.375 1.93642 1.66473 1.42069 2.18046C0.904966 2.69618 0.615234 3.39565 0.615234 4.125L0.615234 5.5H22.6152V4.125C22.6152 3.39565 22.3255 2.69618 21.8098 2.18046C21.2941 1.66473 20.5946 1.375 19.8652 1.375H18.4902V0.6875C18.4902 0.505164 18.4178 0.330295 18.2889 0.201364C18.1599 0.0724328 17.9851 0 17.8027 0C17.6204 0 17.4455 0.0724328 17.3166 0.201364C17.1877 0.330295 17.1152 0.505164 17.1152 0.6875V1.375H6.11523V0.6875ZM13.543 14.0883C14.4024 14.0883 15.171 13.4227 15.171 12.4657C15.171 11.3217 14.4464 10.7745 13.576 10.7745C12.7702 10.7745 11.97 11.3066 11.97 12.4382C11.97 13.5616 12.7166 14.0883 13.543 14.0883Z"/>
            <path d="M22.6152 19.25V6.875H0.615234V19.25C0.615234 19.9793 0.904966 20.6788 1.42069 21.1945C1.93642 21.7103 2.63589 22 3.36523 22H19.8652C20.5946 22 21.2941 21.7103 21.8098 21.1945C22.3255 20.6788 22.6152 19.9793 22.6152 19.25ZM13.4522 17.5863C11.926 17.5863 11.1752 16.5316 11.1106 15.6516H12.0497C12.1089 16.1604 12.5819 16.7791 13.4949 16.7791C14.6554 16.7791 15.2837 15.6131 15.2892 13.8036H15.2521C15.0417 14.3729 14.3762 14.8899 13.3505 14.8899C12.179 14.8899 11.046 14.0511 11.046 12.4561C11.046 10.8928 12.2436 9.96875 13.5169 9.96875C15.1284 9.96875 16.2022 10.978 16.2022 13.6373C16.2022 16.1191 15.182 17.5849 13.4522 17.5849V17.5863ZM9.47848 10.1131V17.4446H8.54898V11.1086H8.53248C8.13373 11.3231 7.31836 11.8236 6.80273 12.177V11.22C7.38139 10.8146 7.98431 10.4449 8.60811 10.1131H9.47848Z"/>
        </g>
    </symbol>

    <symbol id="color" viewBox="0 0 23 22" xmlns="http://www.w3.org/2000/svg">
        <g>
            <path d="M11.6152 0C8.69785 4.34724e-08 5.89996 1.15893 3.83706 3.22183C1.77416 5.28473 0.615234 8.08262 0.615234 11C0.615234 13.9174 1.77416 16.7153 3.83706 18.7782C5.89996 20.8411 8.69785 22 11.6152 22C12.6297 22 13.4486 21.1811 13.4486 20.1667C13.4486 19.69 13.2652 19.2622 12.9719 18.9322C12.6908 18.6144 12.5075 18.1867 12.5075 17.7222C12.5075 16.7078 13.3263 15.8889 14.3408 15.8889H16.5041C19.8775 15.8889 22.6152 13.1511 22.6152 9.77778C22.6152 4.37556 17.6897 0 11.6152 0ZM4.89301 11C3.87857 11 3.05968 10.1811 3.05968 9.16667C3.05968 8.15222 3.87857 7.33333 4.89301 7.33333C5.90746 7.33333 6.72635 8.15222 6.72635 9.16667C6.72635 10.1811 5.90746 11 4.89301 11ZM8.55968 6.11111C7.54523 6.11111 6.72635 5.29222 6.72635 4.27778C6.72635 3.26333 7.54523 2.44444 8.55968 2.44444C9.57412 2.44444 10.393 3.26333 10.393 4.27778C10.393 5.29222 9.57412 6.11111 8.55968 6.11111ZM14.6708 6.11111C13.6563 6.11111 12.8375 5.29222 12.8375 4.27778C12.8375 3.26333 13.6563 2.44444 14.6708 2.44444C15.6852 2.44444 16.5041 3.26333 16.5041 4.27778C16.5041 5.29222 15.6852 6.11111 14.6708 6.11111ZM18.3375 11C17.323 11 16.5041 10.1811 16.5041 9.16667C16.5041 8.15222 17.323 7.33333 18.3375 7.33333C19.3519 7.33333 20.1708 8.15222 20.1708 9.16667C20.1708 10.1811 19.3519 11 18.3375 11Z"/>
        </g>
    </symbol>

    <symbol id="copy" viewBox="0 0 19 22" xmlns="http://www.w3.org/2000/svg">
        <g>
            <path d="M6.86514 17.6C6.26014 17.6 5.7424 17.3848 5.31194 16.9543C4.88074 16.5231 4.66514 16.005 4.66514 15.4V2.2C4.66514 1.595 4.88074 1.0769 5.31194 0.6457C5.7424 0.215233 6.26014 0 6.86514 0H16.7651C17.3701 0 17.8882 0.215233 18.3194 0.6457C18.7499 1.0769 18.9651 1.595 18.9651 2.2V15.4C18.9651 16.005 18.7499 16.5231 18.3194 16.9543C17.8882 17.3848 17.3701 17.6 16.7651 17.6H6.86514ZM2.46514 22C1.86014 22 1.34204 21.7848 0.910837 21.3543C0.48037 20.9231 0.265137 20.405 0.265137 19.8V5.5C0.265137 5.18833 0.370737 4.9269 0.581937 4.7157C0.792404 4.50523 1.05347 4.4 1.36514 4.4C1.6768 4.4 1.93824 4.50523 2.14944 4.7157C2.3599 4.9269 2.46514 5.18833 2.46514 5.5V19.8H13.4651C13.7768 19.8 14.0382 19.9056 14.2494 20.1168C14.4599 20.3273 14.5651 20.5883 14.5651 20.9C14.5651 21.2117 14.4599 21.4727 14.2494 21.6832C14.0382 21.8944 13.7768 22 13.4651 22H2.46514Z"/>
        </g>
    </symbol>

    <symbol id="device" viewBox="0 0 23 20" xmlns="http://www.w3.org/2000/svg">
        <g>
            <path d="M3.33974 2.73999C3.52478 2.06077 3.92809 1.46127 4.48749 1.03389C5.04689 0.60651 5.73133 0.374984 6.43531 0.375H16.7954C17.4994 0.374984 18.1839 0.60651 18.7433 1.03389C19.3027 1.46127 19.706 2.06077 19.891 2.73999L22.4843 12.243C23.1195 14.576 21.3641 16.8749 18.9459 16.8749H4.28482C1.86666 16.8749 0.110329 14.576 0.746494 12.243L3.33974 2.73999ZM5.88439 18.2499C5.70206 18.2499 5.52719 18.3224 5.39826 18.4513C5.26933 18.5802 5.1969 18.7551 5.1969 18.9374C5.1969 19.1198 5.26933 19.2946 5.39826 19.4236C5.52719 19.5525 5.70206 19.6249 5.88439 19.6249H17.3454C17.5278 19.6249 17.7026 19.5525 17.8316 19.4236C17.9605 19.2946 18.0329 19.1198 18.0329 18.9374C18.0329 18.7551 17.9605 18.5802 17.8316 18.4513C17.7026 18.3224 17.5278 18.2499 17.3454 18.2499H5.88439Z"/>
        </g>
    </symbol>

    <symbol id="edit" viewBox="0 0 22 22" xmlns="http://www.w3.org/2000/svg">
        <g>
            <path d="M2.25518 22C1.65018 22 1.13244 21.7848 0.701976 21.3543C0.270776 20.9231 0.0551758 20.405 0.0551758 19.8V2.2C0.0551758 1.595 0.270776 1.0769 0.701976 0.6457C1.13244 0.215233 1.65018 0 2.25518 0H10.1477C10.441 0 10.7208 0.0550001 10.987 0.165C11.2524 0.275 11.486 0.430833 11.6877 0.6325L17.0227 5.9675C17.2243 6.16917 17.3802 6.40273 17.4902 6.6682C17.6002 6.9344 17.6552 7.21417 17.6552 7.5075V11H15.4552V7.7H11.0552C10.7435 7.7 10.4824 7.5944 10.272 7.3832C10.0608 7.17273 9.95518 6.91167 9.95518 6.6V2.2H2.25518V19.8H8.85518V22H2.25518ZM15.7852 13.7775L16.9677 14.96L12.7052 19.195V20.35H13.8602L18.1227 16.115L19.2777 17.27L14.8777 21.67C14.7677 21.78 14.6437 21.8625 14.5059 21.9175C14.3687 21.9725 14.2268 22 14.0802 22H11.6052C11.4585 22 11.3302 21.945 11.2202 21.835C11.1102 21.725 11.0552 21.5967 11.0552 21.45V18.975C11.0552 18.8283 11.0827 18.6864 11.1377 18.5493C11.1927 18.4114 11.2752 18.2875 11.3852 18.1775L15.7852 13.7775ZM19.2777 17.27L15.7852 13.7775L17.3802 12.1825C17.5818 11.9808 17.8385 11.88 18.1502 11.88C18.4618 11.88 18.7185 11.9808 18.9202 12.1825L20.8727 14.135C21.0743 14.3367 21.1752 14.5933 21.1752 14.905C21.1752 15.2167 21.0743 15.4733 20.8727 15.675L19.2777 17.27Z"/>
        </g>
    </symbol>

    <symbol id="events" viewBox="0 0 23 22" xmlns="http://www.w3.org/2000/svg">
        <g>
            <path d="M20.1708 13.4444C19.6004 13.4444 19.03 13.6889 18.6226 14.0148L15.1189 11.8963C15.2004 11.5704 15.2819 11.3259 15.2819 11C15.2819 10.6741 15.2004 10.3482 15.1189 10.1037L18.6226 7.98519C19.03 8.31111 19.6004 8.55556 20.1708 8.55556C21.556 8.55556 22.6152 7.4963 22.6152 6.11111C22.6152 4.72593 21.556 3.66667 20.1708 3.66667C18.7856 3.66667 17.7263 4.72593 17.7263 6.11111C17.7263 6.27408 17.7263 6.43704 17.8078 6.6L14.3041 8.71852C13.7338 8.06667 12.9189 7.74074 12.0226 7.74074C11.5338 7.74074 11.1263 7.82222 10.7189 8.06667L7.62264 4.15556C7.7856 3.74815 7.94857 3.34074 7.94857 2.85185C7.94857 1.46667 6.88931 0.40741 5.50412 0.40741C4.11894 0.40741 3.05968 1.46667 3.05968 2.85185C3.05968 4.23704 4.11894 5.2963 5.50412 5.2963C5.74857 5.2963 6.07449 5.21482 6.31894 5.13334L9.41523 9.04445C9.17079 9.37037 9.00783 9.77778 8.84486 10.1852H5.34116C5.01523 9.20741 4.11894 8.55556 3.05968 8.55556C1.67449 8.55556 0.615234 9.61482 0.615234 11C0.615234 12.3852 1.67449 13.4444 3.05968 13.4444C4.11894 13.4444 5.01523 12.7926 5.34116 11.8148H8.84486C8.92635 12.2222 9.17079 12.6296 9.41523 12.9556L6.31894 16.8667C6.07449 16.7852 5.74857 16.7037 5.50412 16.7037C4.11894 16.7037 3.05968 17.763 3.05968 19.1482C3.05968 20.5333 4.11894 21.5926 5.50412 21.5926C6.88931 21.5926 7.94857 20.5333 7.94857 19.1482C7.94857 18.6593 7.7856 18.2519 7.54116 17.8444L10.6375 13.9333C11.0449 14.0963 11.5338 14.2593 11.9412 14.2593C12.8375 14.2593 13.6523 13.9333 14.2226 13.2815L17.7263 15.4C17.7263 15.563 17.6449 15.7259 17.6449 15.8889C17.6449 17.2741 18.7041 18.3333 20.0893 18.3333C21.4745 18.3333 22.5338 17.2741 22.5338 15.8889C22.5338 14.5037 21.556 13.4444 20.1708 13.4444ZM20.1708 5.2963C20.6597 5.2963 20.9856 5.62222 20.9856 6.11111C20.9856 6.6 20.6597 6.92593 20.1708 6.92593C19.6819 6.92593 19.356 6.6 19.356 6.11111C19.356 5.62222 19.6819 5.2963 20.1708 5.2963ZM4.68931 2.85185C4.68931 2.36297 5.01523 2.03704 5.50412 2.03704C5.99301 2.03704 6.31894 2.36297 6.31894 2.85185C6.31894 3.34074 5.99301 3.66667 5.50412 3.66667C5.01523 3.66667 4.68931 3.34074 4.68931 2.85185ZM3.05968 11.8148C2.57079 11.8148 2.24486 11.4889 2.24486 11C2.24486 10.5111 2.57079 10.1852 3.05968 10.1852C3.54857 10.1852 3.87449 10.5111 3.87449 11C3.87449 11.4889 3.54857 11.8148 3.05968 11.8148ZM5.50412 19.963C5.01523 19.963 4.68931 19.637 4.68931 19.1482C4.68931 18.6593 5.01523 18.3333 5.50412 18.3333C5.99301 18.3333 6.31894 18.6593 6.31894 19.1482C6.31894 19.637 5.99301 19.963 5.50412 19.963ZM12.0226 12.6296C11.1263 12.6296 10.393 11.8963 10.393 11C10.393 10.1037 11.1263 9.37037 12.0226 9.37037C12.9189 9.37037 13.6523 10.1037 13.6523 11C13.6523 11.8963 12.9189 12.6296 12.0226 12.6296ZM20.1708 16.7037C19.6819 16.7037 19.356 16.3778 19.356 15.8889C19.356 15.4 19.6819 15.0741 20.1708 15.0741C20.6597 15.0741 20.9856 15.4 20.9856 15.8889C20.9856 16.3778 20.6597 16.7037 20.1708 16.7037Z"/>
        </g>
    </symbol>

    <symbol id="exit" viewBox="0 0 21 22" xmlns="http://www.w3.org/2000/svg">
        <g>
            <path d="M10.2105 0C10.522 0.000345531 10.8217 0.11963 11.0482 0.333481C11.2747 0.547333 11.411 0.839609 11.4293 1.15059C11.4475 1.46158 11.3464 1.7678 11.1464 2.00668C10.9465 2.24557 10.6629 2.3991 10.3535 2.43589L10.2105 2.44444H4.09941C3.80004 2.44448 3.51111 2.55439 3.2874 2.75332C3.06369 2.95225 2.92076 3.22636 2.88574 3.52367L2.87718 3.66667V18.3333C2.87722 18.6327 2.98713 18.9216 3.18606 19.1453C3.38499 19.3691 3.6591 19.512 3.95641 19.547L4.09941 19.5556H9.59941C9.91092 19.5559 10.2106 19.6752 10.4371 19.889C10.6636 20.1029 10.7999 20.3952 10.8182 20.7061C10.8364 21.0171 10.7352 21.3234 10.5353 21.5622C10.3354 21.8011 10.0517 21.9547 9.7424 21.9914L9.59941 22H4.09941C3.16415 22.0001 2.26422 21.6427 1.58375 21.0011C0.903286 20.3595 0.493719 19.4821 0.438851 18.5484L0.432739 18.3333V3.66667C0.432687 2.73141 0.790026 1.83148 1.43164 1.15101C2.07326 0.470547 2.95065 0.0609797 3.88429 0.00611125L4.09941 0H10.2105ZM17.1857 6.67822L20.6422 10.1359C20.8713 10.3651 21 10.6759 21 11C21 11.3241 20.8713 11.6349 20.6422 11.8641L17.1857 15.3218C16.9564 15.551 16.6454 15.6796 16.3212 15.6795C15.997 15.6794 15.6861 15.5505 15.4569 15.3212C15.2277 15.0918 15.099 14.7808 15.0992 14.4566C15.0993 14.1324 15.2282 13.8215 15.4575 13.5923L16.8276 12.2222H10.2105C9.88636 12.2222 9.57549 12.0935 9.34628 11.8642C9.11706 11.635 8.98829 11.3242 8.98829 11C8.98829 10.6758 9.11706 10.365 9.34628 10.1358C9.57549 9.90655 9.88636 9.77778 10.2105 9.77778H16.8276L15.4575 8.40767C15.2282 8.17849 15.0993 7.8676 15.0992 7.54338C15.099 7.21916 15.2277 6.90817 15.4569 6.67883C15.6861 6.4495 15.997 6.32059 16.3212 6.32047C16.6454 6.32036 16.9564 6.44905 17.1857 6.67822Z"/>
        </g>
    </symbol>

    <symbol id="export" viewBox="0 0 23 22" xmlns="http://www.w3.org/2000/svg">
        <g>
            <path d="M7.38881 6.27552L9.90781 3.74551V14.2945C9.90781 14.5863 10.0237 14.866 10.23 15.0723C10.4363 15.2786 10.7161 15.3945 11.0078 15.3945C11.2996 15.3945 11.5793 15.2786 11.7856 15.0723C11.9919 14.866 12.1078 14.5863 12.1078 14.2945V3.74551L14.6268 6.27552C14.7291 6.37862 14.8507 6.46045 14.9848 6.5163C15.1188 6.57214 15.2626 6.60089 15.4078 6.60089C15.553 6.60089 15.6968 6.57214 15.8308 6.5163C15.9649 6.46045 16.0866 6.37862 16.1888 6.27552C16.2919 6.17326 16.3737 6.05159 16.4296 5.91755C16.4854 5.7835 16.5142 5.63973 16.5142 5.49452C16.5142 5.3493 16.4854 5.20553 16.4296 5.07148C16.3737 4.93744 16.2919 4.81577 16.1888 4.71352L11.7888 0.313515C11.6842 0.21337 11.5608 0.134869 11.4258 0.0825149C11.158 -0.027505 10.8576 -0.027505 10.5898 0.0825149C10.4548 0.134869 10.3314 0.21337 10.2268 0.313515L5.82681 4.71352C5.72425 4.81608 5.64289 4.93784 5.58739 5.07184C5.53188 5.20585 5.50331 5.34947 5.50331 5.49452C5.50331 5.63956 5.53188 5.78319 5.58739 5.91719C5.64289 6.05119 5.72425 6.17295 5.82681 6.27552C5.92938 6.37808 6.05113 6.45943 6.18514 6.51494C6.31914 6.57045 6.46277 6.59902 6.60781 6.59902C6.75286 6.59902 6.89648 6.57045 7.03049 6.51494C7.16449 6.45943 7.28625 6.37808 7.38881 6.27552ZM20.9078 13.1945C20.6161 13.1945 20.3363 13.3104 20.13 13.5167C19.9237 13.723 19.8078 14.0028 19.8078 14.2945V18.6945C19.8078 18.9863 19.6919 19.266 19.4856 19.4723C19.2793 19.6786 18.9996 19.7945 18.7078 19.7945H3.30781C3.01607 19.7945 2.73629 19.6786 2.53 19.4723C2.32371 19.266 2.20781 18.9863 2.20781 18.6945V14.2945C2.20781 14.0028 2.09192 13.723 1.88563 13.5167C1.67934 13.3104 1.39955 13.1945 1.10781 13.1945C0.816074 13.1945 0.536285 13.3104 0.329995 13.5167C0.123705 13.723 0.0078125 14.0028 0.0078125 14.2945V18.6945C0.0078125 19.5697 0.35549 20.4091 0.97436 21.028C1.59323 21.6468 2.4326 21.9945 3.30781 21.9945H18.7078C19.583 21.9945 20.4224 21.6468 21.0413 21.028C21.6601 20.4091 22.0078 19.5697 22.0078 18.6945V14.2945C22.0078 14.0028 21.8919 13.723 21.6856 13.5167C21.4793 13.3104 21.1996 13.1945 20.9078 13.1945Z"/>
        </g>
    </symbol>

    <symbol id="home" viewBox="0 0 22 20" xmlns="http://www.w3.org/2000/svg">
        <g>
            <path d="M8.60606 18.761V12.7828H13.3886V18.761C13.3886 19.4186 13.9267 19.9567 14.5843 19.9567H18.1712C18.8288 19.9567 19.3668 19.4186 19.3668 18.761V10.3916H21.3994C21.9494 10.3916 22.2125 9.71004 21.794 9.35134L11.7984 0.348163C11.3441 -0.0583556 10.6506 -0.0583556 10.1963 0.348163L0.200691 9.35134C-0.205827 9.71004 0.0452573 10.3916 0.595253 10.3916H2.62785V18.761C2.62785 19.4186 3.16588 19.9567 3.82349 19.9567H7.41042C8.06802 19.9567 8.60606 19.4186 8.60606 18.761Z"/>
        </g>
    </symbol>

    <symbol id="info" viewBox="0 0 23 22" xmlns="http://www.w3.org/2000/svg">
        <g>
            <path d="M1.83746 21.3889C1.49116 21.3889 1.20109 21.2715 0.967234 21.0369C0.732568 20.803 0.615234 20.5129 0.615234 20.1666C0.615234 19.8203 0.732568 19.5303 0.967234 19.2964C1.20109 19.0618 1.49116 18.9444 1.83746 18.9444H14.0597C14.406 18.9444 14.6965 19.0618 14.9311 19.2964C15.165 19.5303 15.2819 19.8203 15.2819 20.1666C15.2819 20.5129 15.165 20.803 14.9311 21.0369C14.6965 21.2715 14.406 21.3889 14.0597 21.3889H1.83746ZM16.5041 12.8333C14.8134 12.8333 13.3724 12.2373 12.1811 11.0452C10.989 9.85394 10.393 8.41294 10.393 6.7222C10.393 5.03145 10.989 3.59045 12.1811 2.3992C13.3724 1.20712 14.8134 0.611084 16.5041 0.611084C18.1949 0.611084 19.6363 1.20712 20.8283 2.3992C22.0196 3.59045 22.6152 5.03145 22.6152 6.7222C22.6152 8.41294 22.0196 9.85394 20.8283 11.0452C19.6363 12.2373 18.1949 12.8333 16.5041 12.8333ZM1.83746 11.6111C1.49116 11.6111 1.20109 11.4938 0.967234 11.2591C0.732568 11.0252 0.615234 10.7352 0.615234 10.3889C0.615234 10.0426 0.732568 9.75208 0.967234 9.51742C1.20109 9.28357 1.49116 9.16664 1.83746 9.16664H8.31523C8.45783 9.61479 8.62079 10.0426 8.80412 10.45C8.98746 10.8574 9.21153 11.2444 9.47635 11.6111H1.83746ZM1.83746 16.5C1.49116 16.5 1.20109 16.3826 0.967234 16.148C0.732568 15.9141 0.615234 15.624 0.615234 15.2778C0.615234 14.9315 0.732568 14.641 0.967234 14.4063C1.20109 14.1725 1.49116 14.0555 1.83746 14.0555H12.1041C12.5726 14.3407 13.0717 14.5799 13.6013 14.773C14.131 14.9669 14.6912 15.1046 15.2819 15.1861V15.2778C15.2819 15.624 15.165 15.9141 14.9311 16.148C14.6965 16.3826 14.406 16.5 14.0597 16.5H1.83746ZM16.5041 10.3889C16.6671 10.3889 16.8097 10.3278 16.9319 10.2055C17.0541 10.0833 17.1152 9.94071 17.1152 9.77775V6.11108C17.1152 5.94812 17.0541 5.80553 16.9319 5.68331C16.8097 5.56108 16.6671 5.49997 16.5041 5.49997C16.3412 5.49997 16.1986 5.56108 16.0763 5.68331C15.9541 5.80553 15.893 5.94812 15.893 6.11108V9.77775C15.893 9.94071 15.9541 10.0833 16.0763 10.2055C16.1986 10.3278 16.3412 10.3889 16.5041 10.3889ZM16.5041 4.27775C16.6671 4.27775 16.8097 4.21664 16.9319 4.09442C17.0541 3.9722 17.1152 3.8296 17.1152 3.66664C17.1152 3.50368 17.0541 3.36108 16.9319 3.23886C16.8097 3.11664 16.6671 3.05553 16.5041 3.05553C16.3412 3.05553 16.1986 3.11664 16.0763 3.23886C15.9541 3.36108 15.893 3.50368 15.893 3.66664C15.893 3.8296 15.9541 3.9722 16.0763 4.09442C16.1986 4.21664 16.3412 4.27775 16.5041 4.27775Z"/>
        </g>
    </symbol>

    <symbol id="info" viewBox="0 0 23 22" xmlns="http://www.w3.org/2000/svg">
        <g>
            <path d="M1.83746 21.3889C1.49116 21.3889 1.20109 21.2715 0.967234 21.0369C0.732568 20.803 0.615234 20.5129 0.615234 20.1666C0.615234 19.8203 0.732568 19.5303 0.967234 19.2964C1.20109 19.0618 1.49116 18.9444 1.83746 18.9444H14.0597C14.406 18.9444 14.6965 19.0618 14.9311 19.2964C15.165 19.5303 15.2819 19.8203 15.2819 20.1666C15.2819 20.5129 15.165 20.803 14.9311 21.0369C14.6965 21.2715 14.406 21.3889 14.0597 21.3889H1.83746ZM16.5041 12.8333C14.8134 12.8333 13.3724 12.2373 12.1811 11.0452C10.989 9.85394 10.393 8.41294 10.393 6.7222C10.393 5.03145 10.989 3.59045 12.1811 2.3992C13.3724 1.20712 14.8134 0.611084 16.5041 0.611084C18.1949 0.611084 19.6363 1.20712 20.8283 2.3992C22.0196 3.59045 22.6152 5.03145 22.6152 6.7222C22.6152 8.41294 22.0196 9.85394 20.8283 11.0452C19.6363 12.2373 18.1949 12.8333 16.5041 12.8333ZM1.83746 11.6111C1.49116 11.6111 1.20109 11.4938 0.967234 11.2591C0.732568 11.0252 0.615234 10.7352 0.615234 10.3889C0.615234 10.0426 0.732568 9.75208 0.967234 9.51742C1.20109 9.28357 1.49116 9.16664 1.83746 9.16664H8.31523C8.45783 9.61479 8.62079 10.0426 8.80412 10.45C8.98746 10.8574 9.21153 11.2444 9.47635 11.6111H1.83746ZM1.83746 16.5C1.49116 16.5 1.20109 16.3826 0.967234 16.148C0.732568 15.9141 0.615234 15.624 0.615234 15.2778C0.615234 14.9315 0.732568 14.641 0.967234 14.4063C1.20109 14.1725 1.49116 14.0555 1.83746 14.0555H12.1041C12.5726 14.3407 13.0717 14.5799 13.6013 14.773C14.131 14.9669 14.6912 15.1046 15.2819 15.1861V15.2778C15.2819 15.624 15.165 15.9141 14.9311 16.148C14.6965 16.3826 14.406 16.5 14.0597 16.5H1.83746ZM16.5041 10.3889C16.6671 10.3889 16.8097 10.3278 16.9319 10.2055C17.0541 10.0833 17.1152 9.94071 17.1152 9.77775V6.11108C17.1152 5.94812 17.0541 5.80553 16.9319 5.68331C16.8097 5.56108 16.6671 5.49997 16.5041 5.49997C16.3412 5.49997 16.1986 5.56108 16.0763 5.68331C15.9541 5.80553 15.893 5.94812 15.893 6.11108V9.77775C15.893 9.94071 15.9541 10.0833 16.0763 10.2055C16.1986 10.3278 16.3412 10.3889 16.5041 10.3889ZM16.5041 4.27775C16.6671 4.27775 16.8097 4.21664 16.9319 4.09442C17.0541 3.9722 17.1152 3.8296 17.1152 3.66664C17.1152 3.50368 17.0541 3.36108 16.9319 3.23886C16.8097 3.11664 16.6671 3.05553 16.5041 3.05553C16.3412 3.05553 16.1986 3.11664 16.0763 3.23886C15.9541 3.36108 15.893 3.50368 15.893 3.66664C15.893 3.8296 15.9541 3.9722 16.0763 4.09442C16.1986 4.21664 16.3412 4.27775 16.5041 4.27775Z"/>
        </g>
    </symbol>

    <symbol id="korzina" viewBox="0 0 21 22" xmlns="http://www.w3.org/2000/svg">
        <g>
            <path d="M19.4615 3.38462H15.2308V2.53846C15.2308 1.86522 14.9633 1.21955 14.4873 0.743498C14.0112 0.267444 13.3655 0 12.6923 0H7.61538C6.94214 0 6.29647 0.267444 5.82042 0.743498C5.34437 1.21955 5.07692 1.86522 5.07692 2.53846V3.38462H0.846154C0.62174 3.38462 0.406517 3.47376 0.247833 3.63245C0.0891483 3.79113 0 4.00636 0 4.23077C0 4.45518 0.0891483 4.67041 0.247833 4.82909C0.406517 4.98777 0.62174 5.07692 0.846154 5.07692H1.69231V20.3077C1.69231 20.7565 1.8706 21.187 2.18797 21.5043C2.50534 21.8217 2.93579 22 3.38462 22H16.9231C17.3719 22 17.8023 21.8217 18.1197 21.5043C18.4371 21.187 18.6154 20.7565 18.6154 20.3077V5.07692H19.4615C19.686 5.07692 19.9012 4.98777 20.0599 4.82909C20.2185 4.67041 20.3077 4.45518 20.3077 4.23077C20.3077 4.00636 20.2185 3.79113 20.0599 3.63245C19.9012 3.47376 19.686 3.38462 19.4615 3.38462ZM6.76923 2.53846C6.76923 2.31405 6.85838 2.09883 7.01706 1.94014C7.17575 1.78146 7.39097 1.69231 7.61538 1.69231H12.6923C12.9167 1.69231 13.1319 1.78146 13.2906 1.94014C13.4493 2.09883 13.5385 2.31405 13.5385 2.53846V3.38462H6.76923V2.53846ZM16.9231 20.3077H3.38462V5.07692H16.9231V20.3077ZM8.46154 9.30769V16.0769C8.46154 16.3013 8.37239 16.5166 8.21371 16.6752C8.05502 16.8339 7.8398 16.9231 7.61538 16.9231C7.39097 16.9231 7.17575 16.8339 7.01706 16.6752C6.85838 16.5166 6.76923 16.3013 6.76923 16.0769V9.30769C6.76923 9.08328 6.85838 8.86806 7.01706 8.70937C7.17575 8.55069 7.39097 8.46154 7.61538 8.46154C7.8398 8.46154 8.05502 8.55069 8.21371 8.70937C8.37239 8.86806 8.46154 9.08328 8.46154 9.30769ZM13.5385 9.30769V16.0769C13.5385 16.3013 13.4493 16.5166 13.2906 16.6752C13.1319 16.8339 12.9167 16.9231 12.6923 16.9231C12.4679 16.9231 12.2527 16.8339 12.094 16.6752C11.9353 16.5166 11.8462 16.3013 11.8462 16.0769V9.30769C11.8462 9.08328 11.9353 8.86806 12.094 8.70937C12.2527 8.55069 12.4679 8.46154 12.6923 8.46154C12.9167 8.46154 13.1319 8.55069 13.2906 8.70937C13.4493 8.86806 13.5385 9.08328 13.5385 9.30769Z"/>
        </g>
    </symbol>

    <symbol id="logo" viewBox="0 0 19 18" xmlns="http://www.w3.org/2000/svg">
        <g>
            <path d="M13.24 8.50938L14.81 6.93938L11.06 3.18938L9.49 4.75938L5.35 0.62938C4.57 -0.15062 3.3 -0.15062 2.52 0.62938L0.62 2.52938C-0.16 3.30938 -0.16 4.57938 0.62 5.35938L4.75 9.48938L0.15 14.0994C0.0500001 14.1994 0 14.3194 0 14.4594V17.4994C0 17.7794 0.22 17.9994 0.5 17.9994H3.54C3.67 17.9994 3.8 17.9494 3.89 17.8494L8.51 13.2294L12.64 17.3594C13.96 18.6794 15.4 17.4294 15.47 17.3594L17.37 15.4594C18.15 14.6794 18.15 13.4094 17.37 12.6294L13.24 8.50938ZM6.18 8.06938L2.04 3.93938L3.93 2.03938L5.2 3.30938L4.73 3.79938C4.54302 3.98636 4.43798 4.23995 4.43798 4.50438C4.43798 4.76881 4.54302 5.0224 4.73 5.20938C4.91698 5.39636 5.17057 5.5014 5.435 5.5014C5.69943 5.5014 5.95302 5.39636 6.14 5.20938L6.62 4.72938L8.07 6.17938L6.18 8.06938ZM14.06 15.9594L9.93 11.8294L11.83 9.92938L13.28 11.3794L12.8 11.8594C12.7074 11.952 12.634 12.0619 12.5839 12.1828C12.5338 12.3038 12.508 12.4334 12.508 12.5644C12.508 12.6953 12.5338 12.825 12.5839 12.9459C12.634 13.0669 12.7074 13.1768 12.8 13.2694C12.8926 13.362 13.0025 13.4354 13.1235 13.4855C13.2444 13.5356 13.3741 13.5614 13.505 13.5614C13.6359 13.5614 13.7656 13.5356 13.8865 13.4855C14.0075 13.4354 14.1174 13.362 14.21 13.2694L14.69 12.7894L15.96 14.0594L14.06 15.9594ZM17.71 4.03938C17.8027 3.94687 17.8762 3.83698 17.9264 3.716C17.9766 3.59503 18.0024 3.46535 18.0024 3.33438C18.0024 3.20341 17.9766 3.07373 17.9264 2.95276C17.8762 2.83178 17.8027 2.72189 17.71 2.62938L15.37 0.289379C14.9 -0.180621 14.25 -0.000620574 13.96 0.289379L12.13 2.11938L15.88 5.86938L17.71 4.03938Z"/>
        </g>
    </symbol>

    <symbol id="logs" viewBox="0 0 22 22" xmlns="http://www.w3.org/2000/svg">
        <g>
            <path d="M12.0132 13.3881H21.5658V14.9802H12.0132V13.3881ZM12.0132 16.5723H21.5658V18.1644H12.0132V16.5723ZM12.0132 19.7565H18.3816V21.3486H12.0132V19.7565Z"/>
            <path d="M16.7894 1.44733C16.0854 1.44942 15.402 1.68501 14.8462 2.11718C14.2904 2.54935 13.8937 3.15368 13.7183 3.83548H7.23679V1.44733H0.868369V7.81575H7.23679V5.42759H13.7183C13.7924 5.71252 13.9063 5.98559 14.0566 6.23877L5.65981 14.6355C5.17449 14.3431 4.61919 14.1871 4.05258 14.1842C3.45652 14.1819 2.87181 14.3471 2.36496 14.6607C1.85811 14.9744 1.44949 15.4241 1.18557 15.9585C0.921659 16.493 0.813055 17.0908 0.872118 17.6839C0.931181 18.277 1.15554 18.8416 1.51967 19.3136C1.88379 19.7855 2.37306 20.1457 2.93182 20.3533C3.49057 20.5608 4.09636 20.6074 4.68027 20.4877C5.26418 20.3679 5.80277 20.0867 6.23474 19.676C6.66671 19.2653 6.97473 18.7416 7.12375 18.1644H10.421V16.5723H7.12375C7.04961 16.2874 6.93572 16.0143 6.78543 15.7611L15.1822 7.36439C15.6675 7.65683 16.2228 7.81278 16.7894 7.81575C17.6339 7.81575 18.4438 7.48027 19.041 6.88311C19.6382 6.28596 19.9736 5.47604 19.9736 4.63154C19.9736 3.78703 19.6382 2.97712 19.041 2.37996C18.4438 1.7828 17.6339 1.44733 16.7894 1.44733ZM5.64468 6.22364H2.46047V3.03943H5.64468V6.22364ZM4.05258 18.9605C3.73769 18.9605 3.42987 18.8671 3.16805 18.6922C2.90623 18.5172 2.70217 18.2686 2.58167 17.9777C2.46116 17.6867 2.42963 17.3666 2.49107 17.0578C2.5525 16.7489 2.70413 16.4653 2.92679 16.2426C3.14945 16.0199 3.43314 15.8683 3.74197 15.8069C4.05081 15.7454 4.37093 15.777 4.66185 15.8975C4.95277 16.018 5.20142 16.222 5.37637 16.4839C5.55131 16.7457 5.64468 17.0535 5.64468 17.3684C5.64426 17.7905 5.47639 18.1952 5.1779 18.4937C4.87942 18.7922 4.4747 18.9601 4.05258 18.9605ZM16.7894 6.22364C16.4745 6.22364 16.1667 6.13027 15.9049 5.95532C15.6431 5.78038 15.439 5.53173 15.3185 5.24081C15.198 4.94989 15.1665 4.62977 15.2279 4.32093C15.2893 4.01209 15.441 3.72841 15.6636 3.50575C15.8863 3.28309 16.17 3.13146 16.4788 3.07002C16.7877 3.00859 17.1078 3.04012 17.3987 3.16062C17.6896 3.28113 17.9383 3.48519 18.1132 3.74701C18.2882 4.00883 18.3815 4.31665 18.3815 4.63154C18.3811 5.05366 18.2132 5.45837 17.9147 5.75686C17.6163 6.05535 17.2115 6.22322 16.7894 6.22364Z"/>
        </g>
    </symbol>

    <symbol id="plus" viewBox="0 0 23 22" xmlns="http://www.w3.org/2000/svg">
        <g>
            <path d="M21.0438 12.5714H13.1867V20.4286C13.1867 20.8453 13.0211 21.245 12.7264 21.5397C12.4317 21.8344 12.032 22 11.6152 22C11.1985 22 10.7988 21.8344 10.5041 21.5397C10.2094 21.245 10.0438 20.8453 10.0438 20.4286V12.5714H2.18666C1.76989 12.5714 1.3702 12.4059 1.0755 12.1112C0.780795 11.8165 0.615234 11.4168 0.615234 11C0.615234 10.5832 0.780795 10.1835 1.0755 9.88883C1.3702 9.59413 1.76989 9.42857 2.18666 9.42857H10.0438V1.57143C10.0438 1.15466 10.2094 0.75496 10.5041 0.46026C10.7988 0.16556 11.1985 0 11.6152 0C12.032 0 12.4317 0.16556 12.7264 0.46026C13.0211 0.75496 13.1867 1.15466 13.1867 1.57143V9.42857H21.0438C21.4606 9.42857 21.8603 9.59413 22.155 9.88883C22.4497 10.1835 22.6152 10.5832 22.6152 11C22.6152 11.4168 22.4497 11.8165 22.155 12.1112C21.8603 12.4059 21.4606 12.5714 21.0438 12.5714Z"/>
        </g>
    </symbol>

    <symbol id="preference" viewBox="0 0 21 20" xmlns="http://www.w3.org/2000/svg">
        <g>
            <path d="M7.63276 20L7.23276 16.8C7.0161 16.7167 6.8121 16.6167 6.62076 16.5C6.42876 16.3833 6.2411 16.2583 6.05776 16.125L3.08276 17.375L0.332764 12.625L2.90776 10.675C2.8911 10.5583 2.88276 10.4457 2.88276 10.337V9.662C2.88276 9.554 2.8911 9.44167 2.90776 9.325L0.332764 7.375L3.08276 2.625L6.05776 3.875C6.2411 3.74167 6.43276 3.61667 6.63276 3.5C6.83276 3.38333 7.03276 3.28333 7.23276 3.2L7.63276 0H13.1328L13.5328 3.2C13.7494 3.28333 13.9538 3.38333 14.1458 3.5C14.3371 3.61667 14.5244 3.74167 14.7078 3.875L17.6828 2.625L20.4328 7.375L17.8578 9.325C17.8744 9.44167 17.8828 9.554 17.8828 9.662V10.337C17.8828 10.4457 17.8661 10.5583 17.8328 10.675L20.4078 12.625L17.6578 17.375L14.7078 16.125C14.5244 16.2583 14.3328 16.3833 14.1328 16.5C13.9328 16.6167 13.7328 16.7167 13.5328 16.8L13.1328 20H7.63276ZM10.4328 13.5C11.3994 13.5 12.2244 13.1583 12.9078 12.475C13.5911 11.7917 13.9328 10.9667 13.9328 10C13.9328 9.03333 13.5911 8.20833 12.9078 7.525C12.2244 6.84167 11.3994 6.5 10.4328 6.5C9.44943 6.5 8.6201 6.84167 7.94476 7.525C7.2701 8.20833 6.93276 9.03333 6.93276 10C6.93276 10.9667 7.2701 11.7917 7.94476 12.475C8.6201 13.1583 9.44943 13.5 10.4328 13.5Z"/>
        </g>
    </symbol>

    <symbol id="rename" viewBox="0 0 23 20" xmlns="http://www.w3.org/2000/svg">
        <g>
            <path d="M15.2819 14.8904L10.393 19.7792H20.1708C21.5152 19.7792 22.6152 18.6792 22.6152 17.3348C22.6152 15.9904 21.5152 14.8904 20.1708 14.8904H15.2819ZM11.6886 4.12258L0.969679 14.8415C0.749679 15.0615 0.615234 15.3792 0.615234 15.697V18.557C0.615234 19.2292 1.16523 19.7792 1.83746 19.7792H4.69746C5.02746 19.7792 5.33301 19.6448 5.56523 19.4248L16.2841 8.70591L11.6886 4.12258ZM19.8163 5.16147C19.9296 5.0484 20.0195 4.91409 20.0809 4.76623C20.1422 4.61837 20.1738 4.45987 20.1738 4.2998C20.1738 4.13973 20.1422 3.98123 20.0809 3.83337C20.0195 3.68552 19.9296 3.55121 19.8163 3.43813L16.9563 0.578135C16.8433 0.46483 16.709 0.374939 16.5611 0.313606C16.4133 0.252273 16.2548 0.220703 16.0947 0.220703C15.9346 0.220703 15.7761 0.252273 15.6282 0.313606C15.4804 0.374939 15.3461 0.46483 15.233 0.578135L12.9963 2.8148L17.5797 7.39813L19.8163 5.16147Z"/>
        </g>
    </symbol>

    <symbol id="rules" viewBox="0 0 23 18" xmlns="http://www.w3.org/2000/svg">
        <g>
            <path d="M6.11523 10.1H13.8152C14.1269 10.1 14.3883 9.99441 14.5995 9.78321C14.81 9.57275 14.9152 9.31168 14.9152 9.00001C14.9152 8.68835 14.81 8.42691 14.5995 8.21571C14.3883 8.00525 14.1269 7.90001 13.8152 7.90001H6.11523C5.80357 7.90001 5.54213 8.00525 5.33093 8.21571C5.12047 8.42691 5.01523 8.68835 5.01523 9.00001C5.01523 9.31168 5.12047 9.57275 5.33093 9.78321C5.54213 9.99441 5.80357 10.1 6.11523 10.1ZM6.11523 6.80001H13.8152C14.1269 6.80001 14.3883 6.69441 14.5995 6.48321C14.81 6.27275 14.9152 6.01168 14.9152 5.70001C14.9152 5.38835 14.81 5.12691 14.5995 4.91571C14.3883 4.70525 14.1269 4.60001 13.8152 4.60001H6.11523C5.80357 4.60001 5.54213 4.70525 5.33093 4.91571C5.12047 5.12691 5.01523 5.38835 5.01523 5.70001C5.01523 6.01168 5.12047 6.27275 5.33093 6.48321C5.54213 6.69441 5.80357 6.80001 6.11523 6.80001ZM2.81523 17.8C2.21023 17.8 1.6925 17.5848 1.26203 17.1543C0.830834 16.7231 0.615234 16.205 0.615234 15.6V2.40001C0.615234 1.79501 0.830834 1.27728 1.26203 0.846812C1.6925 0.415612 2.21023 0.200012 2.81523 0.200012H20.4152C21.0202 0.200012 21.5383 0.415612 21.9695 0.846812C22.4 1.27728 22.6152 1.79501 22.6152 2.40001V15.6C22.6152 16.205 22.4 16.7231 21.9695 17.1543C21.5383 17.5848 21.0202 17.8 20.4152 17.8H2.81523Z"/>
        </g>
    </symbol>

    <symbol id="save" viewBox="0 0 23 22" xmlns="http://www.w3.org/2000/svg">
        <g>
            <path d="M5.32952 3.92857V0H3.75809C2.92455 0 2.12516 0.331121 1.53576 0.920521C0.946356 1.50992 0.615234 2.30932 0.615234 3.14286V15.7143C0.615234 16.5478 0.946356 17.3472 1.53576 17.9366C2.12516 18.526 2.92455 18.8571 3.75809 18.8571V11.7826C3.75809 10.4783 4.81566 9.42857 6.11523 9.42857H13.9724C14.5975 9.42857 15.1971 9.67691 15.6391 10.119C16.0812 10.561 16.3295 11.1606 16.3295 11.7857V18.8571C17.1631 18.8571 17.9625 18.526 18.5519 17.9366C19.1413 17.3472 19.4724 16.5478 19.4724 15.7143V5.69014C19.4722 4.85667 19.141 4.0574 18.5515 3.46814L16.0042 0.920857C15.415 0.331416 14.6157 0.000178003 13.7822 0H13.1867V3.92857C13.1867 4.55372 12.9383 5.15327 12.4963 5.59532C12.0542 6.03737 11.4547 6.28571 10.8295 6.28571H7.68666C7.06151 6.28571 6.46196 6.03737 6.01991 5.59532C5.57786 5.15327 5.32952 4.55372 5.32952 3.92857ZM6.90095 3.92857V0H11.6152V3.92857C11.6152 4.13695 11.5325 4.3368 11.3851 4.48415C11.2378 4.6315 11.0379 4.71428 10.8295 4.71428H7.68666C7.47828 4.71428 7.27843 4.6315 7.13108 4.48415C6.98373 4.3368 6.90095 4.13695 6.90095 3.92857ZM14.7581 18.8571H5.32952V11.7826C5.32952 11.3504 5.67995 11 6.11523 11H13.9724C14.1808 11 14.3806 11.0828 14.528 11.2301C14.6753 11.3775 14.7581 11.5773 14.7581 11.7857V18.8571ZM9.25809 22C7.8182 22.0021 6.43529 21.4376 5.40809 20.4286H17.1152C18.1572 20.4286 19.1564 20.0147 19.8931 19.2779C20.6299 18.5412 21.0438 17.5419 21.0438 16.5V4.79286C22.0149 5.786 22.6152 7.14528 22.6152 8.64285V16.5C22.6152 17.9587 22.0358 19.3576 21.0043 20.3891C19.9729 21.4205 18.5739 22 17.1152 22H9.25809Z"/>
        </g>
    </symbol>

    <symbol id="status" viewBox="0 0 23 21" xmlns="http://www.w3.org/2000/svg">
        <g>
            <path d="M4.35053 10.9413V8.70595C4.35053 6.92742 5.05704 5.22174 6.31464 3.96413C7.57223 2.70652 9.2779 2 11.0564 2C12.8349 2 14.5406 2.70652 15.7982 3.96413C17.0558 5.22174 17.7623 6.92742 17.7623 8.70595V10.9413M2.11523 17.6472C2.11523 18.2401 2.35074 18.8086 2.76994 19.2278C3.18914 19.647 3.75769 19.8825 4.35053 19.8825C4.94337 19.8825 5.51192 19.647 5.93112 19.2278C6.35032 18.8086 6.58582 18.2401 6.58582 17.6472C6.58582 17.0544 6.35032 16.4858 5.93112 16.0666C5.51192 15.6474 4.94337 15.4119 4.35053 15.4119C3.75769 15.4119 3.18914 15.6474 2.76994 16.0666C2.35074 16.4858 2.11523 17.0544 2.11523 17.6472ZM15.527 17.6472C15.527 18.2401 15.7625 18.8086 16.1817 19.2278C16.6009 19.647 17.1695 19.8825 17.7623 19.8825C18.3551 19.8825 18.9237 19.647 19.3429 19.2278C19.7621 18.8086 19.9976 18.2401 19.9976 17.6472C19.9976 17.0544 19.7621 16.4858 19.3429 16.0666C18.9237 15.6474 18.3551 15.4119 17.7623 15.4119C17.1695 15.4119 16.6009 15.6474 16.1817 16.0666C15.7625 16.4858 15.527 17.0544 15.527 17.6472Z" stroke="currentColor" stroke-width="2.23531" stroke-linecap="round" stroke-linejoin="round"/>
            <path d="M14.4094 7.58844L17.7624 10.9414L21.1153 7.58844" stroke-width="2.23531" stroke-linecap="round" stroke-linejoin="round"/>
        </g>
    </symbol>

    <symbol id="study" viewBox="0 0 22 19" xmlns="http://www.w3.org/2000/svg">
        <g>
            <path d="M20.7269 14.4301C20.4291 14.4301 20.1795 14.3292 19.9784 14.1273C19.7765 13.9261 19.6756 13.6766 19.6756 13.3787V7.17559L11.2383 11.7754C11.0806 11.863 10.9183 11.9285 10.7515 11.972C10.5854 12.0161 10.406 12.0382 10.2132 12.0382C10.0205 12.0382 9.84102 12.0161 9.6749 11.972C9.50809 11.9285 9.34582 11.863 9.18812 11.7754L0.330292 6.93903C0.155062 6.85142 0.0194354 6.7242 -0.0765901 6.55738C-0.173316 6.39126 -0.22168 6.21183 -0.22168 6.01908C-0.22168 5.82632 -0.173316 5.64689 -0.0765901 5.48077C0.0194354 5.31395 0.155062 5.18674 0.330292 5.09912L9.2144 0.262783C9.37211 0.175169 9.53402 0.109282 9.70014 0.0651242C9.86695 0.0216672 10.038 -6.10352e-05 10.2132 -6.10352e-05C10.3884 -6.10352e-05 10.5595 0.0216672 10.7263 0.0651242C10.8924 0.109282 11.0543 0.175169 11.212 0.262783L21.2263 5.72995C21.4016 5.81756 21.5376 5.94443 21.6343 6.11055C21.7303 6.27737 21.7783 6.45715 21.7783 6.6499V13.3787C21.7783 13.6766 21.6774 13.9261 21.4755 14.1273C21.2744 14.3292 21.0248 14.4301 20.7269 14.4301ZM10.2132 18.3465C10.038 18.3465 9.86695 18.3248 9.70014 18.2813C9.53402 18.2371 9.37211 18.1713 9.2144 18.0836L3.95753 15.2449C3.60707 15.0522 3.33547 14.7939 3.14272 14.4701C2.94997 14.1455 2.85359 13.7817 2.85359 13.3787V9.38348L8.82014 12.6165C9.04793 12.7391 9.27573 12.8485 9.50353 12.9445C9.73133 13.0412 9.96789 13.0896 10.2132 13.0896C10.4585 13.0896 10.6996 13.037 10.9366 12.9319C11.1728 12.8267 11.4048 12.7128 11.6326 12.5902L17.5728 9.38348V13.3787C17.5728 13.7817 17.4764 14.1455 17.2837 14.4701C17.0909 14.7939 16.8193 15.0522 16.4689 15.2449L11.212 18.0836C11.0543 18.1713 10.8924 18.2371 10.7263 18.2813C10.5595 18.3248 10.3884 18.3465 10.2132 18.3465Z"/>
        </g>
    </symbol>

    <symbol id="tag" viewBox="0 0 23 22" xmlns="http://www.w3.org/2000/svg">
        <g>
            <path d="M4.46523 5.5C4.02763 5.5 3.60794 5.32616 3.29851 5.01673C2.98907 4.70729 2.81523 4.28761 2.81523 3.85C2.81523 3.41239 2.98907 2.99271 3.29851 2.68327C3.60794 2.37384 4.02763 2.2 4.46523 2.2C4.90284 2.2 5.32253 2.37384 5.63196 2.68327C5.9414 2.99271 6.11523 3.41239 6.11523 3.85C6.11523 4.28761 5.9414 4.70729 5.63196 5.01673C5.32253 5.32616 4.90284 5.5 4.46523 5.5ZM21.9662 10.538L12.0662 0.638C11.6702 0.242 11.1202 0 10.5152 0H2.81523C1.59423 0 0.615234 0.979 0.615234 2.2V9.9C0.615234 10.505 0.857234 11.055 1.26423 11.451L11.1532 21.351C11.5602 21.747 12.1102 22 12.7152 22C13.3202 22 13.8702 21.747 14.2662 21.351L21.9662 13.651C22.3732 13.255 22.6152 12.705 22.6152 12.1C22.6152 11.484 22.3622 10.934 21.9662 10.538Z"/>
        </g>
    </symbol>

    <symbol id="study" viewBox="0 0 23 22" xmlns="http://www.w3.org/2000/svg">
        <g>
            <path d="M4.46523 5.5C4.02763 5.5 3.60794 5.32616 3.29851 5.01673C2.98907 4.70729 2.81523 4.28761 2.81523 3.85C2.81523 3.41239 2.98907 2.99271 3.29851 2.68327C3.60794 2.37384 4.02763 2.2 4.46523 2.2C4.90284 2.2 5.32253 2.37384 5.63196 2.68327C5.9414 2.99271 6.11523 3.41239 6.11523 3.85C6.11523 4.28761 5.9414 4.70729 5.63196 5.01673C5.32253 5.32616 4.90284 5.5 4.46523 5.5ZM21.9662 10.538L12.0662 0.638C11.6702 0.242 11.1202 0 10.5152 0H2.81523C1.59423 0 0.615234 0.979 0.615234 2.2V9.9C0.615234 10.505 0.857234 11.055 1.26423 11.451L11.1532 21.351C11.5602 21.747 12.1102 22 12.7152 22C13.3202 22 13.8702 21.747 14.2662 21.351L21.9662 13.651C22.3732 13.255 22.6152 12.705 22.6152 12.1C22.6152 11.484 22.3622 10.934 21.9662 10.538Z"/>
        </g>
    </symbol>

    <symbol id="user" viewBox="0 0 22 22" xmlns="http://www.w3.org/2000/svg">
        <g>
            <path d="M21.1951 4.4729L20.7112 4.19354C20.768 3.89295 20.768 3.58439 20.7112 3.2838L21.1951 3.00444C21.386 2.89426 21.5253 2.71278 21.5824 2.4999C21.6394 2.28703 21.6096 2.06021 21.4994 1.86933C21.3893 1.67846 21.2078 1.53917 20.9949 1.4821C20.782 1.42504 20.5552 1.45488 20.3643 1.56505L19.8793 1.84545C19.6472 1.64632 19.3804 1.49176 19.0921 1.38954V0.830815C19.0921 0.610469 19.0046 0.399148 18.8488 0.24334C18.693 0.087532 18.4817 0 18.2613 0C18.041 0 17.8297 0.087532 17.6739 0.24334C17.518 0.399148 17.4305 0.610469 17.4305 0.830815V1.38954C17.1423 1.49176 16.8754 1.64632 16.6433 1.84545L16.1583 1.56505C16.0638 1.5105 15.9595 1.47509 15.8513 1.46086C15.7431 1.44663 15.6332 1.45385 15.5278 1.4821C15.4224 1.51036 15.3235 1.5591 15.237 1.62554C15.1504 1.69198 15.0778 1.77482 15.0232 1.86933C14.9687 1.96385 14.9333 2.06818 14.919 2.17637C14.9048 2.28456 14.912 2.3945 14.9403 2.4999C14.9685 2.60531 15.0173 2.70411 15.0837 2.79068C15.1502 2.87725 15.233 2.94988 15.3275 3.00444L15.8115 3.2838C15.7547 3.58439 15.7547 3.89295 15.8115 4.19354L15.3275 4.4729C15.169 4.56431 15.0452 4.70546 14.9751 4.87447C14.905 5.04348 14.8927 5.23088 14.9401 5.4076C14.9874 5.58432 15.0918 5.74047 15.2369 5.85182C15.3821 5.96316 15.56 6.02348 15.7429 6.02341C15.8888 6.02386 16.0322 5.98551 16.1583 5.91229L16.6433 5.63189C16.8754 5.83102 17.1423 5.98558 17.4305 6.0878V6.64652C17.4305 6.86687 17.518 7.07819 17.6739 7.234C17.8297 7.3898 18.041 7.47734 18.2613 7.47734C18.4817 7.47734 18.693 7.3898 18.8488 7.234C19.0046 7.07819 19.0921 6.86687 19.0921 6.64652V6.0878C19.3804 5.98558 19.6472 5.83102 19.8793 5.63189L20.3643 5.91229C20.4905 5.98551 20.6339 6.02386 20.7797 6.02341C20.9627 6.02348 21.1406 5.96316 21.2857 5.85182C21.4309 5.74047 21.5352 5.58432 21.5826 5.4076C21.6299 5.23088 21.6176 5.04348 21.5476 4.87447C21.4775 4.70546 21.3536 4.56431 21.1951 4.4729ZM17.4305 3.73867C17.4305 3.57435 17.4792 3.41372 17.5705 3.27709C17.6618 3.14047 17.7916 3.03398 17.9434 2.9711C18.0952 2.90821 18.2623 2.89176 18.4234 2.92382C18.5846 2.95587 18.7326 3.035 18.8488 3.15119C18.965 3.26739 19.0441 3.41542 19.0762 3.57658C19.1082 3.73775 19.0918 3.9048 19.0289 4.05661C18.966 4.20842 18.8595 4.33818 18.7229 4.42947C18.5863 4.52076 18.4257 4.56948 18.2613 4.56948C18.041 4.56948 17.8297 4.48195 17.6739 4.32614C17.518 4.17034 17.4305 3.95901 17.4305 3.73867ZM20.4786 8.73498C20.2613 8.77135 20.0673 8.89255 19.9393 9.07192C19.8114 9.25129 19.7599 9.47414 19.7963 9.69146C19.8806 10.1953 19.923 10.7052 19.923 11.216C19.9249 13.4532 19.1027 15.6127 17.6133 17.282C16.6867 15.9393 15.3838 14.9005 13.8684 14.2963C14.6824 13.6551 15.2764 12.7763 15.5678 11.7819C15.8591 10.7875 15.8334 9.72707 15.4941 8.74801C15.1548 7.76895 14.5189 6.91995 13.6748 6.31907C12.8306 5.71818 11.8202 5.39529 10.784 5.39529C9.74782 5.39529 8.73739 5.71818 7.89324 6.31907C7.04908 6.91995 6.41315 7.76895 6.07388 8.74801C5.73461 9.72707 5.70887 10.7875 6.00023 11.7819C6.2916 12.7763 6.88559 13.6551 7.69959 14.2963C6.1842 14.9005 4.88129 15.9393 3.95469 17.282C2.78607 15.9651 2.02271 14.3387 1.7564 12.5983C1.49009 10.8579 1.73218 9.07767 2.45355 7.47159C3.17492 5.86551 4.34486 4.502 5.8227 3.54499C7.30054 2.58799 9.02335 2.07824 10.784 2.07704C11.2948 2.07696 11.8047 2.11934 12.3085 2.20374C12.5249 2.23787 12.7459 2.1852 12.9236 2.05719C13.1013 1.92918 13.2213 1.73618 13.2575 1.52017C13.2936 1.30416 13.243 1.08261 13.1166 0.903731C12.9903 0.724847 12.7984 0.603094 12.5827 0.564954C10.3265 0.185391 8.00797 0.532692 5.96198 1.55671C3.91598 2.58073 2.24837 4.22849 1.1999 6.26206C0.151432 8.29563 -0.22363 10.6098 0.128867 12.8704C0.481363 15.1311 1.54318 17.2212 3.161 18.839C4.77882 20.4568 6.86894 21.5186 9.12957 21.8711C11.3902 22.2236 13.7044 21.8486 15.7379 20.8001C17.7715 19.7516 19.4193 18.084 20.4433 16.038C21.4673 13.992 21.8146 11.6735 21.435 9.41729C21.3987 9.19998 21.2775 9.00601 21.0981 8.87806C20.9187 8.7501 20.6959 8.69864 20.4786 8.73498ZM7.46073 10.3852C7.46073 9.72791 7.65564 9.08539 8.0208 8.53889C8.38597 7.99238 8.90499 7.56643 9.51224 7.3149C10.1195 7.06337 10.7877 6.99756 11.4323 7.12578C12.077 7.25401 12.6691 7.57052 13.1339 8.03529C13.5987 8.50006 13.9152 9.09221 14.0434 9.73685C14.1716 10.3815 14.1058 11.0497 13.8543 11.6569C13.6028 12.2642 13.1768 12.7832 12.6303 13.1484C12.0838 13.5135 11.4413 13.7085 10.784 13.7085C9.90261 13.7085 9.05733 13.3583 8.43409 12.7351C7.81086 12.1119 7.46073 11.2666 7.46073 10.3852ZM5.1843 18.4337C5.78533 17.4937 6.61331 16.7202 7.59192 16.1843C8.57053 15.6485 9.66829 15.3676 10.784 15.3676C11.8997 15.3676 12.9975 15.6485 13.9761 16.1843C14.9547 16.7202 15.7827 17.4937 16.3837 18.4337C14.7826 19.6789 12.8122 20.3549 10.784 20.3549C8.75574 20.3549 6.78535 19.6789 5.1843 18.4337Z"/>
        </g>
    </symbol>

    <symbol id="zavod" viewBox="0 0 22 22" xmlns="http://www.w3.org/2000/svg">
        <g>
            <path d="M2.2 22C1.595 22 1.07727 21.7848 0.6468 21.3543C0.2156 20.9231 0 20.405 0 19.8V10.2575C0 9.81751 0.119167 9.41418 0.3575 9.04751C0.595833 8.68084 0.916667 8.40584 1.32 8.22251L6.16 6.16001C6.52667 6.01334 6.875 6.04524 7.205 6.25571C7.535 6.46691 7.7 6.77417 7.7 7.17751V7.70001L11.6875 6.10501C12.0542 5.95834 12.3977 5.99501 12.7182 6.21501C13.0394 6.43501 13.2 6.73751 13.2 7.12251V8.80001H22V19.8C22 20.405 21.7848 20.9231 21.3543 21.3543C20.9231 21.7848 20.405 22 19.8 22H2.2ZM21.78 7.15001H16.6925L17.49 0.962501C17.5267 0.687501 17.6458 0.458334 17.8475 0.275C18.0492 0.0916667 18.2875 0 18.5625 0H19.9375C20.2125 0 20.4508 0.0916667 20.6525 0.275C20.8542 0.458334 20.9733 0.687501 21.01 0.962501L21.78 7.15001ZM11 17.6C11.3117 17.6 11.5731 17.4944 11.7843 17.2832C11.9948 17.0727 12.1 16.8117 12.1 16.5V14.3C12.1 13.9883 11.9948 13.7269 11.7843 13.5157C11.5731 13.3052 11.3117 13.2 11 13.2C10.6883 13.2 10.4273 13.3052 10.2168 13.5157C10.0056 13.7269 9.9 13.9883 9.9 14.3V16.5C9.9 16.8117 10.0056 17.0727 10.2168 17.2832C10.4273 17.4944 10.6883 17.6 11 17.6ZM6.6 17.6C6.91167 17.6 7.1731 17.4944 7.3843 17.2832C7.59477 17.0727 7.7 16.8117 7.7 16.5V14.3C7.7 13.9883 7.59477 13.7269 7.3843 13.5157C7.1731 13.3052 6.91167 13.2 6.6 13.2C6.28833 13.2 6.0269 13.3052 5.8157 13.5157C5.60523 13.7269 5.5 13.9883 5.5 14.3V16.5C5.5 16.8117 5.60523 17.0727 5.8157 17.2832C6.0269 17.4944 6.28833 17.6 6.6 17.6ZM15.4 17.6C15.7117 17.6 15.9727 17.4944 16.1832 17.2832C16.3944 17.0727 16.5 16.8117 16.5 16.5V14.3C16.5 13.9883 16.3944 13.7269 16.1832 13.5157C15.9727 13.3052 15.7117 13.2 15.4 13.2C15.0883 13.2 14.8273 13.3052 14.6168 13.5157C14.4056 13.7269 14.3 13.9883 14.3 14.3V16.5C14.3 16.8117 14.4056 17.0727 14.6168 17.2832C14.8273 17.4944 15.0883 17.6 15.4 17.6Z"/>
        </g>
    </symbol>
    <symbol id="arrow-left" xmlns="http://www.w3.org/2000/svg" viewBox="0 0 22 22">
        <g>
            <path d="M11,18.75a.74.74,0,0,1-.53-.22l-6-6a.75.75,0,0,1,0-1.06l6-6a.75.75,0,0,1,1.06,1.06L6.06,12l5.47,5.47a.75.75,0,0,1,0,1.06A.74.74,0,0,1,11,18.75Z"/>
            <path d="M19,12.75H5a.75.75,0,0,1,0-1.5H19a.75.75,0,0,1,0,1.5Z"/>
        </g>
    </symbol>
</svg>
