<svg width="20" height="22" viewBox="0 0 20 22" fill="currentColor" xmlns="http://www.w3.org/2000/svg">
<path d="M13.8613 2.629V19.129C13.8613 20.966 15.1153 22 16.4903 22C17.7443 22 19.1193 21.131 19.1193 19.129V2.75C19.1193 1.056 17.8653 0 16.4903 0C15.1153 0 13.8613 1.166 13.8613 2.629ZM6.98633 11V19.129C6.98633 20.977 8.26233 22 9.61533 22C10.8693 22 12.2443 21.131 12.2443 19.129V11.121C12.2443 9.427 10.9903 8.371 9.61533 8.371C8.24033 8.371 6.98633 9.537 6.98633 11ZM2.74033 16.753C4.19233 16.753 5.36933 17.93 5.36933 19.371C5.36933 20.0683 5.09235 20.737 4.59931 21.23C4.10628 21.723 3.43758 22 2.74033 22C2.04307 22 1.37438 21.723 0.881344 21.23C0.388311 20.737 0.111328 20.0683 0.111328 19.371C0.111328 17.93 1.28833 16.753 2.74033 16.753Z"/>
</svg>
