<svg width="19" height="22" viewBox="0 0 19 22" fill="currentColor" xmlns="http://www.w3.org/2000/svg">
<path d="M6.86514 17.6C6.26014 17.6 5.7424 17.3848 5.31194 16.9543C4.88074 16.5231 4.66514 16.005 4.66514 15.4V2.2C4.66514 1.595 4.88074 1.0769 5.31194 0.6457C5.7424 0.215233 6.26014 0 6.86514 0H16.7651C17.3701 0 17.8882 0.215233 18.3194 0.6457C18.7499 1.0769 18.9651 1.595 18.9651 2.2V15.4C18.9651 16.005 18.7499 16.5231 18.3194 16.9543C17.8882 17.3848 17.3701 17.6 16.7651 17.6H6.86514ZM2.46514 22C1.86014 22 1.34204 21.7848 0.910837 21.3543C0.48037 20.9231 0.265137 20.405 0.265137 19.8V5.5C0.265137 5.18833 0.370737 4.9269 0.581937 4.7157C0.792404 4.50523 1.05347 4.4 1.36514 4.4C1.6768 4.4 1.93824 4.50523 2.14944 4.7157C2.3599 4.9269 2.46514 5.18833 2.46514 5.5V19.8H13.4651C13.7768 19.8 14.0382 19.9056 14.2494 20.1168C14.4599 20.3273 14.5651 20.5883 14.5651 20.9C14.5651 21.2117 14.4599 21.4727 14.2494 21.6832C14.0382 21.8944 13.7768 22 13.4651 22H2.46514Z"/>
</svg>
