<svg width="23" height="20" viewBox="0 0 23 20" fill="currentColor" xmlns="http://www.w3.org/2000/svg">
<path d="M3.33974 2.73999C3.52478 2.06077 3.92809 1.46127 4.48749 1.03389C5.04689 0.60651 5.73133 0.374984 6.43531 0.375H16.7954C17.4994 0.374984 18.1839 0.60651 18.7433 1.03389C19.3027 1.46127 19.706 2.06077 19.891 2.73999L22.4843 12.243C23.1195 14.576 21.3641 16.8749 18.9459 16.8749H4.28482C1.86666 16.8749 0.110329 14.576 0.746494 12.243L3.33974 2.73999ZM5.88439 18.2499C5.70206 18.2499 5.52719 18.3224 5.39826 18.4513C5.26933 18.5802 5.1969 18.7551 5.1969 18.9374C5.1969 19.1198 5.26933 19.2946 5.39826 19.4236C5.52719 19.5525 5.70206 19.6249 5.88439 19.6249H17.3454C17.5278 19.6249 17.7026 19.5525 17.8316 19.4236C17.9605 19.2946 18.0329 19.1198 18.0329 18.9374C18.0329 18.7551 17.9605 18.5802 17.8316 18.4513C17.7026 18.3224 17.5278 18.2499 17.3454 18.2499H5.88439Z"/>
</svg>
