<svg width="22" height="22" viewBox="0 0 22 22" fill="currentColor" xmlns="http://www.w3.org/2000/svg">
<path d="M2.25518 22C1.65018 22 1.13244 21.7848 0.701976 21.3543C0.270776 20.9231 0.0551758 20.405 0.0551758 19.8V2.2C0.0551758 1.595 0.270776 1.0769 0.701976 0.6457C1.13244 0.215233 1.65018 0 2.25518 0H10.1477C10.441 0 10.7208 0.0550001 10.987 0.165C11.2524 0.275 11.486 0.430833 11.6877 0.6325L17.0227 5.9675C17.2243 6.16917 17.3802 6.40273 17.4902 6.6682C17.6002 6.9344 17.6552 7.21417 17.6552 7.5075V11H15.4552V7.7H11.0552C10.7435 7.7 10.4824 7.5944 10.272 7.3832C10.0608 7.17273 9.95518 6.91167 9.95518 6.6V2.2H2.25518V19.8H8.85518V22H2.25518ZM15.7852 13.7775L16.9677 14.96L12.7052 19.195V20.35H13.8602L18.1227 16.115L19.2777 17.27L14.8777 21.67C14.7677 21.78 14.6437 21.8625 14.5059 21.9175C14.3687 21.9725 14.2268 22 14.0802 22H11.6052C11.4585 22 11.3302 21.945 11.2202 21.835C11.1102 21.725 11.0552 21.5967 11.0552 21.45V18.975C11.0552 18.8283 11.0827 18.6864 11.1377 18.5493C11.1927 18.4114 11.2752 18.2875 11.3852 18.1775L15.7852 13.7775ZM19.2777 17.27L15.7852 13.7775L17.3802 12.1825C17.5818 11.9808 17.8385 11.88 18.1502 11.88C18.4618 11.88 18.7185 11.9808 18.9202 12.1825L20.8727 14.135C21.0743 14.3367 21.1752 14.5933 21.1752 14.905C21.1752 15.2167 21.0743 15.4733 20.8727 15.675L19.2777 17.27Z"/>
</svg>
