<svg width="21" height="20" viewBox="0 0 21 20" fill="currentColor" xmlns="http://www.w3.org/2000/svg">
<path d="M7.63276 20L7.23276 16.8C7.0161 16.7167 6.8121 16.6167 6.62076 16.5C6.42876 16.3833 6.2411 16.2583 6.05776 16.125L3.08276 17.375L0.332764 12.625L2.90776 10.675C2.8911 10.5583 2.88276 10.4457 2.88276 10.337V9.662C2.88276 9.554 2.8911 9.44167 2.90776 9.325L0.332764 7.375L3.08276 2.625L6.05776 3.875C6.2411 3.74167 6.43276 3.61667 6.63276 3.5C6.83276 3.38333 7.03276 3.28333 7.23276 3.2L7.63276 0H13.1328L13.5328 3.2C13.7494 3.28333 13.9538 3.38333 14.1458 3.5C14.3371 3.61667 14.5244 3.74167 14.7078 3.875L17.6828 2.625L20.4328 7.375L17.8578 9.325C17.8744 9.44167 17.8828 9.554 17.8828 9.662V10.337C17.8828 10.4457 17.8661 10.5583 17.8328 10.675L20.4078 12.625L17.6578 17.375L14.7078 16.125C14.5244 16.2583 14.3328 16.3833 14.1328 16.5C13.9328 16.6167 13.7328 16.7167 13.5328 16.8L13.1328 20H7.63276ZM10.4328 13.5C11.3994 13.5 12.2244 13.1583 12.9078 12.475C13.5911 11.7917 13.9328 10.9667 13.9328 10C13.9328 9.03333 13.5911 8.20833 12.9078 7.525C12.2244 6.84167 11.3994 6.5 10.4328 6.5C9.44943 6.5 8.6201 6.84167 7.94476 7.525C7.2701 8.20833 6.93276 9.03333 6.93276 10C6.93276 10.9667 7.2701 11.7917 7.94476 12.475C8.6201 13.1583 9.44943 13.5 10.4328 13.5Z"/>
</svg>
