<svg width="23" height="20" viewBox="0 0 23 20" fill="currentColor" xmlns="http://www.w3.org/2000/svg">
<path d="M15.2819 14.8904L10.393 19.7792H20.1708C21.5152 19.7792 22.6152 18.6792 22.6152 17.3348C22.6152 15.9904 21.5152 14.8904 20.1708 14.8904H15.2819ZM11.6886 4.12258L0.969679 14.8415C0.749679 15.0615 0.615234 15.3792 0.615234 15.697V18.557C0.615234 19.2292 1.16523 19.7792 1.83746 19.7792H4.69746C5.02746 19.7792 5.33301 19.6448 5.56523 19.4248L16.2841 8.70591L11.6886 4.12258ZM19.8163 5.16147C19.9296 5.0484 20.0195 4.91409 20.0809 4.76623C20.1422 4.61837 20.1738 4.45987 20.1738 4.2998C20.1738 4.13973 20.1422 3.98123 20.0809 3.83337C20.0195 3.68552 19.9296 3.55121 19.8163 3.43813L16.9563 0.578135C16.8433 0.46483 16.709 0.374939 16.5611 0.313606C16.4133 0.252273 16.2548 0.220703 16.0947 0.220703C15.9346 0.220703 15.7761 0.252273 15.6282 0.313606C15.4804 0.374939 15.3461 0.46483 15.233 0.578135L12.9963 2.8148L17.5797 7.39813L19.8163 5.16147Z"/>
</svg>
