<svg width="23" height="18" viewBox="0 0 23 18" fill="currentColor" xmlns="http://www.w3.org/2000/svg">
<path d="M6.11523 10.1H13.8152C14.1269 10.1 14.3883 9.99441 14.5995 9.78321C14.81 9.57275 14.9152 9.31168 14.9152 9.00001C14.9152 8.68835 14.81 8.42691 14.5995 8.21571C14.3883 8.00525 14.1269 7.90001 13.8152 7.90001H6.11523C5.80357 7.90001 5.54213 8.00525 5.33093 8.21571C5.12047 8.42691 5.01523 8.68835 5.01523 9.00001C5.01523 9.31168 5.12047 9.57275 5.33093 9.78321C5.54213 9.99441 5.80357 10.1 6.11523 10.1ZM6.11523 6.80001H13.8152C14.1269 6.80001 14.3883 6.69441 14.5995 6.48321C14.81 6.27275 14.9152 6.01168 14.9152 5.70001C14.9152 5.38835 14.81 5.12691 14.5995 4.91571C14.3883 4.70525 14.1269 4.60001 13.8152 4.60001H6.11523C5.80357 4.60001 5.54213 4.70525 5.33093 4.91571C5.12047 5.12691 5.01523 5.38835 5.01523 5.70001C5.01523 6.01168 5.12047 6.27275 5.33093 6.48321C5.54213 6.69441 5.80357 6.80001 6.11523 6.80001ZM2.81523 17.8C2.21023 17.8 1.6925 17.5848 1.26203 17.1543C0.830834 16.7231 0.615234 16.205 0.615234 15.6V2.40001C0.615234 1.79501 0.830834 1.27728 1.26203 0.846812C1.6925 0.415612 2.21023 0.200012 2.81523 0.200012H20.4152C21.0202 0.200012 21.5383 0.415612 21.9695 0.846812C22.4 1.27728 22.6152 1.79501 22.6152 2.40001V15.6C22.6152 16.205 22.4 16.7231 21.9695 17.1543C21.5383 17.5848 21.0202 17.8 20.4152 17.8H2.81523Z"/>
</svg>
