<svg width="23" height="21" viewBox="0 0 23 21" fill="none" xmlns="http://www.w3.org/2000/svg">
<path d="M4.35053 10.9413V8.70595C4.35053 6.92742 5.05704 5.22174 6.31464 3.96413C7.57223 2.70652 9.2779 2 11.0564 2C12.8349 2 14.5406 2.70652 15.7982 3.96413C17.0558 5.22174 17.7623 6.92742 17.7623 8.70595V10.9413M2.11523 17.6472C2.11523 18.2401 2.35074 18.8086 2.76994 19.2278C3.18914 19.647 3.75769 19.8825 4.35053 19.8825C4.94337 19.8825 5.51192 19.647 5.93112 19.2278C6.35032 18.8086 6.58582 18.2401 6.58582 17.6472C6.58582 17.0544 6.35032 16.4858 5.93112 16.0666C5.51192 15.6474 4.94337 15.4119 4.35053 15.4119C3.75769 15.4119 3.18914 15.6474 2.76994 16.0666C2.35074 16.4858 2.11523 17.0544 2.11523 17.6472ZM15.527 17.6472C15.527 18.2401 15.7625 18.8086 16.1817 19.2278C16.6009 19.647 17.1695 19.8825 17.7623 19.8825C18.3551 19.8825 18.9237 19.647 19.3429 19.2278C19.7621 18.8086 19.9976 18.2401 19.9976 17.6472C19.9976 17.0544 19.7621 16.4858 19.3429 16.0666C18.9237 15.6474 18.3551 15.4119 17.7623 15.4119C17.1695 15.4119 16.6009 15.6474 16.1817 16.0666C15.7625 16.4858 15.527 17.0544 15.527 17.6472Z" stroke="currentColor" stroke-width="2.23531" stroke-linecap="round" stroke-linejoin="round"/>
<path d="M14.4094 7.58844L17.7624 10.9414L21.1153 7.58844" stroke="currentColor" stroke-width="2.23531" stroke-linecap="round" stroke-linejoin="round"/>
</svg>
