<svg width="23" height="22" viewBox="0 0 23 22" fill="currentColor" xmlns="http://www.w3.org/2000/svg">
<path d="M4.46523 5.5C4.02763 5.5 3.60794 5.32616 3.29851 5.01673C2.98907 4.70729 2.81523 4.28761 2.81523 3.85C2.81523 3.41239 2.98907 2.99271 3.29851 2.68327C3.60794 2.37384 4.02763 2.2 4.46523 2.2C4.90284 2.2 5.32253 2.37384 5.63196 2.68327C5.9414 2.99271 6.11523 3.41239 6.11523 3.85C6.11523 4.28761 5.9414 4.70729 5.63196 5.01673C5.32253 5.32616 4.90284 5.5 4.46523 5.5ZM21.9662 10.538L12.0662 0.638C11.6702 0.242 11.1202 0 10.5152 0H2.81523C1.59423 0 0.615234 0.979 0.615234 2.2V9.9C0.615234 10.505 0.857234 11.055 1.26423 11.451L11.1532 21.351C11.5602 21.747 12.1102 22 12.7152 22C13.3202 22 13.8702 21.747 14.2662 21.351L21.9662 13.651C22.3732 13.255 22.6152 12.705 22.6152 12.1C22.6152 11.484 22.3622 10.934 21.9662 10.538Z"/>
</svg>
