<svg width="22" height="22" viewBox="0 0 22 22" fill="currentColor" xmlns="http://www.w3.org/2000/svg">
<path d="M2.2 22C1.595 22 1.07727 21.7848 0.6468 21.3543C0.2156 20.9231 0 20.405 0 19.8V10.2575C0 9.81751 0.119167 9.41418 0.3575 9.04751C0.595833 8.68084 0.916667 8.40584 1.32 8.22251L6.16 6.16001C6.52667 6.01334 6.875 6.04524 7.205 6.25571C7.535 6.46691 7.7 6.77417 7.7 7.17751V7.70001L11.6875 6.10501C12.0542 5.95834 12.3977 5.99501 12.7182 6.21501C13.0394 6.43501 13.2 6.73751 13.2 7.12251V8.80001H22V19.8C22 20.405 21.7848 20.9231 21.3543 21.3543C20.9231 21.7848 20.405 22 19.8 22H2.2ZM21.78 7.15001H16.6925L17.49 0.962501C17.5267 0.687501 17.6458 0.458334 17.8475 0.275C18.0492 0.0916667 18.2875 0 18.5625 0H19.9375C20.2125 0 20.4508 0.0916667 20.6525 0.275C20.8542 0.458334 20.9733 0.687501 21.01 0.962501L21.78 7.15001ZM11 17.6C11.3117 17.6 11.5731 17.4944 11.7843 17.2832C11.9948 17.0727 12.1 16.8117 12.1 16.5V14.3C12.1 13.9883 11.9948 13.7269 11.7843 13.5157C11.5731 13.3052 11.3117 13.2 11 13.2C10.6883 13.2 10.4273 13.3052 10.2168 13.5157C10.0056 13.7269 9.9 13.9883 9.9 14.3V16.5C9.9 16.8117 10.0056 17.0727 10.2168 17.2832C10.4273 17.4944 10.6883 17.6 11 17.6ZM6.6 17.6C6.91167 17.6 7.1731 17.4944 7.3843 17.2832C7.59477 17.0727 7.7 16.8117 7.7 16.5V14.3C7.7 13.9883 7.59477 13.7269 7.3843 13.5157C7.1731 13.3052 6.91167 13.2 6.6 13.2C6.28833 13.2 6.0269 13.3052 5.8157 13.5157C5.60523 13.7269 5.5 13.9883 5.5 14.3V16.5C5.5 16.8117 5.60523 17.0727 5.8157 17.2832C6.0269 17.4944 6.28833 17.6 6.6 17.6ZM15.4 17.6C15.7117 17.6 15.9727 17.4944 16.1832 17.2832C16.3944 17.0727 16.5 16.8117 16.5 16.5V14.3C16.5 13.9883 16.3944 13.7269 16.1832 13.5157C15.9727 13.3052 15.7117 13.2 15.4 13.2C15.0883 13.2 14.8273 13.3052 14.6168 13.5157C14.4056 13.7269 14.3 13.9883 14.3 14.3V16.5C14.3 16.8117 14.4056 17.0727 14.6168 17.2832C14.8273 17.4944 15.0883 17.6 15.4 17.6Z"/>
</svg>
