<svg width="23" height="14" viewBox="0 0 23 14" fill="currentColor" xmlns="http://www.w3.org/2000/svg">
<path d="M7.82704 11.4769L3.35011 6.99999L7.82704 2.52306C7.93338 2.418 8.01781 2.29287 8.07544 2.15494C8.13306 2.017 8.16273 1.869 8.16273 1.71951C8.16273 1.57002 8.13306 1.42202 8.07544 1.28408C8.01781 1.14615 7.93338 1.02102 7.82704 0.915961C7.72197 0.809617 7.59685 0.725185 7.45891 0.66756C7.32098 0.609934 7.17297 0.580261 7.02349 0.580261C6.874 0.580261 6.72599 0.609934 6.58806 0.66756C6.45012 0.725185 6.325 0.809617 6.21993 0.915961L0.950939 6.18496C0.844522 6.29115 0.760095 6.4173 0.70249 6.55617C0.644885 6.69504 0.615234 6.8439 0.615234 6.99425C0.615234 7.14459 0.644885 7.29345 0.70249 7.43232C0.760095 7.57119 0.844522 7.69734 0.950939 7.80354L6.21993 13.084C6.66763 13.5317 7.37934 13.5317 7.82704 13.084C7.93338 12.9789 8.01781 12.8538 8.07544 12.7159C8.13306 12.5779 8.16273 12.4299 8.16273 12.2805C8.16273 12.131 8.13306 11.983 8.07544 11.845C8.01781 11.7071 7.93338 11.582 7.82704 11.4769ZM15.4034 11.4769L19.8803 6.99999L15.4034 2.52306C15.297 2.418 15.2126 2.29287 15.155 2.15494C15.0973 2.017 15.0677 1.869 15.0677 1.71951C15.0677 1.57002 15.0973 1.42202 15.155 1.28408C15.2126 1.14615 15.297 1.02102 15.4034 0.915961C15.5084 0.809617 15.6336 0.725185 15.7715 0.66756C15.9094 0.609934 16.0574 0.580261 16.2069 0.580261C16.3564 0.580261 16.5044 0.609934 16.6423 0.66756C16.7803 0.725185 16.9054 0.809617 17.0105 0.915961L22.2795 6.18496C22.7272 6.63265 22.7272 7.35584 22.2795 7.80354L17.0105 13.084C16.9054 13.1904 16.7803 13.2748 16.6423 13.3324C16.5044 13.39 16.3564 13.4197 16.2069 13.4197C16.0574 13.4197 15.9094 13.39 15.7715 13.3324C15.6336 13.2748 15.5084 13.1904 15.4034 13.084C15.297 12.9789 15.2126 12.8538 15.155 12.7159C15.0973 12.5779 15.0677 12.4299 15.0677 12.2805C15.0677 12.131 15.0973 11.983 15.155 11.845C15.2126 11.7071 15.297 11.582 15.4034 11.4769Z"/>
</svg>
