<svg width="23" height="22" viewBox="0 0 23 22" fill="currentColor" xmlns="http://www.w3.org/2000/svg">
<path d="M6.11523 0.6875C6.11523 0.505164 6.0428 0.330295 5.91387 0.201364C5.78494 0.0724328 5.61007 0 5.42773 0C5.2454 0 5.07053 0.0724328 4.9416 0.201364C4.81267 0.330295 4.74023 0.505164 4.74023 0.6875V1.375H3.36523C2.63589 1.375 1.93642 1.66473 1.42069 2.18046C0.904966 2.69618 0.615234 3.39565 0.615234 4.125L0.615234 5.5H22.6152V4.125C22.6152 3.39565 22.3255 2.69618 21.8098 2.18046C21.2941 1.66473 20.5946 1.375 19.8652 1.375H18.4902V0.6875C18.4902 0.505164 18.4178 0.330295 18.2889 0.201364C18.1599 0.0724328 17.9851 0 17.8027 0C17.6204 0 17.4455 0.0724328 17.3166 0.201364C17.1877 0.330295 17.1152 0.505164 17.1152 0.6875V1.375H6.11523V0.6875ZM13.543 14.0883C14.4024 14.0883 15.171 13.4227 15.171 12.4657C15.171 11.3217 14.4464 10.7745 13.576 10.7745C12.7702 10.7745 11.97 11.3066 11.97 12.4382C11.97 13.5616 12.7166 14.0883 13.543 14.0883Z"/>
<path d="M22.6152 19.25V6.875H0.615234V19.25C0.615234 19.9793 0.904966 20.6788 1.42069 21.1945C1.93642 21.7103 2.63589 22 3.36523 22H19.8652C20.5946 22 21.2941 21.7103 21.8098 21.1945C22.3255 20.6788 22.6152 19.9793 22.6152 19.25ZM13.4522 17.5863C11.926 17.5863 11.1752 16.5316 11.1106 15.6516H12.0497C12.1089 16.1604 12.5819 16.7791 13.4949 16.7791C14.6554 16.7791 15.2837 15.6131 15.2892 13.8036H15.2521C15.0417 14.3729 14.3762 14.8899 13.3505 14.8899C12.179 14.8899 11.046 14.0511 11.046 12.4561C11.046 10.8928 12.2436 9.96875 13.5169 9.96875C15.1284 9.96875 16.2022 10.978 16.2022 13.6373C16.2022 16.1191 15.182 17.5849 13.4522 17.5849V17.5863ZM9.47848 10.1131V17.4446H8.54898V11.1086H8.53248C8.13373 11.3231 7.31836 11.8236 6.80273 12.177V11.22C7.38139 10.8146 7.98431 10.4449 8.60811 10.1131H9.47848Z"/>
</svg>
