<svg width="23" height="22" viewBox="0 0 23 22" fill="currentColor" xmlns="http://www.w3.org/2000/svg">
<path d="M7.38881 6.27552L9.90781 3.74551V14.2945C9.90781 14.5863 10.0237 14.866 10.23 15.0723C10.4363 15.2786 10.7161 15.3945 11.0078 15.3945C11.2996 15.3945 11.5793 15.2786 11.7856 15.0723C11.9919 14.866 12.1078 14.5863 12.1078 14.2945V3.74551L14.6268 6.27552C14.7291 6.37862 14.8507 6.46045 14.9848 6.5163C15.1188 6.57214 15.2626 6.60089 15.4078 6.60089C15.553 6.60089 15.6968 6.57214 15.8308 6.5163C15.9649 6.46045 16.0866 6.37862 16.1888 6.27552C16.2919 6.17326 16.3737 6.05159 16.4296 5.91755C16.4854 5.7835 16.5142 5.63973 16.5142 5.49452C16.5142 5.3493 16.4854 5.20553 16.4296 5.07148C16.3737 4.93744 16.2919 4.81577 16.1888 4.71352L11.7888 0.313515C11.6842 0.21337 11.5608 0.134869 11.4258 0.0825149C11.158 -0.027505 10.8576 -0.027505 10.5898 0.0825149C10.4548 0.134869 10.3314 0.21337 10.2268 0.313515L5.82681 4.71352C5.72425 4.81608 5.64289 4.93784 5.58739 5.07184C5.53188 5.20585 5.50331 5.34947 5.50331 5.49452C5.50331 5.63956 5.53188 5.78319 5.58739 5.91719C5.64289 6.05119 5.72425 6.17295 5.82681 6.27552C5.92938 6.37808 6.05113 6.45943 6.18514 6.51494C6.31914 6.57045 6.46277 6.59902 6.60781 6.59902C6.75286 6.59902 6.89648 6.57045 7.03049 6.51494C7.16449 6.45943 7.28625 6.37808 7.38881 6.27552ZM20.9078 13.1945C20.6161 13.1945 20.3363 13.3104 20.13 13.5167C19.9237 13.723 19.8078 14.0028 19.8078 14.2945V18.6945C19.8078 18.9863 19.6919 19.266 19.4856 19.4723C19.2793 19.6786 18.9996 19.7945 18.7078 19.7945H3.30781C3.01607 19.7945 2.73629 19.6786 2.53 19.4723C2.32371 19.266 2.20781 18.9863 2.20781 18.6945V14.2945C2.20781 14.0028 2.09192 13.723 1.88563 13.5167C1.67934 13.3104 1.39955 13.1945 1.10781 13.1945C0.816074 13.1945 0.536285 13.3104 0.329995 13.5167C0.123705 13.723 0.0078125 14.0028 0.0078125 14.2945V18.6945C0.0078125 19.5697 0.35549 20.4091 0.97436 21.028C1.59323 21.6468 2.4326 21.9945 3.30781 21.9945H18.7078C19.583 21.9945 20.4224 21.6468 21.0413 21.028C21.6601 20.4091 22.0078 19.5697 22.0078 18.6945V14.2945C22.0078 14.0028 21.8919 13.723 21.6856 13.5167C21.4793 13.3104 21.1996 13.1945 20.9078 13.1945Z"/>
</svg>
