<svg width="21" height="22" viewBox="0 0 21 22" fill="currentColor" xmlns="http://www.w3.org/2000/svg">
<path d="M19.4615 3.38462H15.2308V2.53846C15.2308 1.86522 14.9633 1.21955 14.4873 0.743498C14.0112 0.267444 13.3655 0 12.6923 0H7.61538C6.94214 0 6.29647 0.267444 5.82042 0.743498C5.34437 1.21955 5.07692 1.86522 5.07692 2.53846V3.38462H0.846154C0.62174 3.38462 0.406517 3.47376 0.247833 3.63245C0.0891483 3.79113 0 4.00636 0 4.23077C0 4.45518 0.0891483 4.67041 0.247833 4.82909C0.406517 4.98777 0.62174 5.07692 0.846154 5.07692H1.69231V20.3077C1.69231 20.7565 1.8706 21.187 2.18797 21.5043C2.50534 21.8217 2.93579 22 3.38462 22H16.9231C17.3719 22 17.8023 21.8217 18.1197 21.5043C18.4371 21.187 18.6154 20.7565 18.6154 20.3077V5.07692H19.4615C19.686 5.07692 19.9012 4.98777 20.0599 4.82909C20.2185 4.67041 20.3077 4.45518 20.3077 4.23077C20.3077 4.00636 20.2185 3.79113 20.0599 3.63245C19.9012 3.47376 19.686 3.38462 19.4615 3.38462ZM6.76923 2.53846C6.76923 2.31405 6.85838 2.09883 7.01706 1.94014C7.17575 1.78146 7.39097 1.69231 7.61538 1.69231H12.6923C12.9167 1.69231 13.1319 1.78146 13.2906 1.94014C13.4493 2.09883 13.5385 2.31405 13.5385 2.53846V3.38462H6.76923V2.53846ZM16.9231 20.3077H3.38462V5.07692H16.9231V20.3077ZM8.46154 9.30769V16.0769C8.46154 16.3013 8.37239 16.5166 8.21371 16.6752C8.05502 16.8339 7.8398 16.9231 7.61538 16.9231C7.39097 16.9231 7.17575 16.8339 7.01706 16.6752C6.85838 16.5166 6.76923 16.3013 6.76923 16.0769V9.30769C6.76923 9.08328 6.85838 8.86806 7.01706 8.70937C7.17575 8.55069 7.39097 8.46154 7.61538 8.46154C7.8398 8.46154 8.05502 8.55069 8.21371 8.70937C8.37239 8.86806 8.46154 9.08328 8.46154 9.30769ZM13.5385 9.30769V16.0769C13.5385 16.3013 13.4493 16.5166 13.2906 16.6752C13.1319 16.8339 12.9167 16.9231 12.6923 16.9231C12.4679 16.9231 12.2527 16.8339 12.094 16.6752C11.9353 16.5166 11.8462 16.3013 11.8462 16.0769V9.30769C11.8462 9.08328 11.9353 8.86806 12.094 8.70937C12.2527 8.55069 12.4679 8.46154 12.6923 8.46154C12.9167 8.46154 13.1319 8.55069 13.2906 8.70937C13.4493 8.86806 13.5385 9.08328 13.5385 9.30769Z"/>
</svg>
