<svg width="22" height="22" viewBox="0 0 22 22" fill="currentColor" xmlns="http://www.w3.org/2000/svg">
<path d="M12.0132 13.3881H21.5658V14.9802H12.0132V13.3881ZM12.0132 16.5723H21.5658V18.1644H12.0132V16.5723ZM12.0132 19.7565H18.3816V21.3486H12.0132V19.7565Z"/>
<path d="M16.7894 1.44733C16.0854 1.44942 15.402 1.68501 14.8462 2.11718C14.2904 2.54935 13.8937 3.15368 13.7183 3.83548H7.23679V1.44733H0.868369V7.81575H7.23679V5.42759H13.7183C13.7924 5.71252 13.9063 5.98559 14.0566 6.23877L5.65981 14.6355C5.17449 14.3431 4.61919 14.1871 4.05258 14.1842C3.45652 14.1819 2.87181 14.3471 2.36496 14.6607C1.85811 14.9744 1.44949 15.4241 1.18557 15.9585C0.921659 16.493 0.813055 17.0908 0.872118 17.6839C0.931181 18.277 1.15554 18.8416 1.51967 19.3136C1.88379 19.7855 2.37306 20.1457 2.93182 20.3533C3.49057 20.5608 4.09636 20.6074 4.68027 20.4877C5.26418 20.3679 5.80277 20.0867 6.23474 19.676C6.66671 19.2653 6.97473 18.7416 7.12375 18.1644H10.421V16.5723H7.12375C7.04961 16.2874 6.93572 16.0143 6.78543 15.7611L15.1822 7.36439C15.6675 7.65683 16.2228 7.81278 16.7894 7.81575C17.6339 7.81575 18.4438 7.48027 19.041 6.88311C19.6382 6.28596 19.9736 5.47604 19.9736 4.63154C19.9736 3.78703 19.6382 2.97712 19.041 2.37996C18.4438 1.7828 17.6339 1.44733 16.7894 1.44733ZM5.64468 6.22364H2.46047V3.03943H5.64468V6.22364ZM4.05258 18.9605C3.73769 18.9605 3.42987 18.8671 3.16805 18.6922C2.90623 18.5172 2.70217 18.2686 2.58167 17.9777C2.46116 17.6867 2.42963 17.3666 2.49107 17.0578C2.5525 16.7489 2.70413 16.4653 2.92679 16.2426C3.14945 16.0199 3.43314 15.8683 3.74197 15.8069C4.05081 15.7454 4.37093 15.777 4.66185 15.8975C4.95277 16.018 5.20142 16.222 5.37637 16.4839C5.55131 16.7457 5.64468 17.0535 5.64468 17.3684C5.64426 17.7905 5.47639 18.1952 5.1779 18.4937C4.87942 18.7922 4.4747 18.9601 4.05258 18.9605ZM16.7894 6.22364C16.4745 6.22364 16.1667 6.13027 15.9049 5.95532C15.6431 5.78038 15.439 5.53173 15.3185 5.24081C15.198 4.94989 15.1665 4.62977 15.2279 4.32093C15.2893 4.01209 15.441 3.72841 15.6636 3.50575C15.8863 3.28309 16.17 3.13146 16.4788 3.07002C16.7877 3.00859 17.1078 3.04012 17.3987 3.16062C17.6896 3.28113 17.9383 3.48519 18.1132 3.74701C18.2882 4.00883 18.3815 4.31665 18.3815 4.63154C18.3811 5.05366 18.2132 5.45837 17.9147 5.75686C17.6163 6.05535 17.2115 6.22322 16.7894 6.22364Z"/>
</svg>
