<svg width="23" height="22" viewBox="0 0 23 22" fill="currentColor" xmlns="http://www.w3.org/2000/svg">
<path d="M21.0438 12.5714H13.1867V20.4286C13.1867 20.8453 13.0211 21.245 12.7264 21.5397C12.4317 21.8344 12.032 22 11.6152 22C11.1985 22 10.7988 21.8344 10.5041 21.5397C10.2094 21.245 10.0438 20.8453 10.0438 20.4286V12.5714H2.18666C1.76989 12.5714 1.3702 12.4059 1.0755 12.1112C0.780795 11.8165 0.615234 11.4168 0.615234 11C0.615234 10.5832 0.780795 10.1835 1.0755 9.88883C1.3702 9.59413 1.76989 9.42857 2.18666 9.42857H10.0438V1.57143C10.0438 1.15466 10.2094 0.75496 10.5041 0.46026C10.7988 0.16556 11.1985 0 11.6152 0C12.032 0 12.4317 0.16556 12.7264 0.46026C13.0211 0.75496 13.1867 1.15466 13.1867 1.57143V9.42857H21.0438C21.4606 9.42857 21.8603 9.59413 22.155 9.88883C22.4497 10.1835 22.6152 10.5832 22.6152 11C22.6152 11.4168 22.4497 11.8165 22.155 12.1112C21.8603 12.4059 21.4606 12.5714 21.0438 12.5714Z"/>
</svg>
