<svg width="22" height="19" viewBox="0 0 22 19" fill="currentColor" xmlns="http://www.w3.org/2000/svg">
<path d="M20.7269 14.4301C20.4291 14.4301 20.1795 14.3292 19.9784 14.1273C19.7765 13.9261 19.6756 13.6766 19.6756 13.3787V7.17559L11.2383 11.7754C11.0806 11.863 10.9183 11.9285 10.7515 11.972C10.5854 12.0161 10.406 12.0382 10.2132 12.0382C10.0205 12.0382 9.84102 12.0161 9.6749 11.972C9.50809 11.9285 9.34582 11.863 9.18812 11.7754L0.330292 6.93903C0.155062 6.85142 0.0194354 6.7242 -0.0765901 6.55738C-0.173316 6.39126 -0.22168 6.21183 -0.22168 6.01908C-0.22168 5.82632 -0.173316 5.64689 -0.0765901 5.48077C0.0194354 5.31395 0.155062 5.18674 0.330292 5.09912L9.2144 0.262783C9.37211 0.175169 9.53402 0.109282 9.70014 0.0651242C9.86695 0.0216672 10.038 -6.10352e-05 10.2132 -6.10352e-05C10.3884 -6.10352e-05 10.5595 0.0216672 10.7263 0.0651242C10.8924 0.109282 11.0543 0.175169 11.212 0.262783L21.2263 5.72995C21.4016 5.81756 21.5376 5.94443 21.6343 6.11055C21.7303 6.27737 21.7783 6.45715 21.7783 6.6499V13.3787C21.7783 13.6766 21.6774 13.9261 21.4755 14.1273C21.2744 14.3292 21.0248 14.4301 20.7269 14.4301ZM10.2132 18.3465C10.038 18.3465 9.86695 18.3248 9.70014 18.2813C9.53402 18.2371 9.37211 18.1713 9.2144 18.0836L3.95753 15.2449C3.60707 15.0522 3.33547 14.7939 3.14272 14.4701C2.94997 14.1455 2.85359 13.7817 2.85359 13.3787V9.38348L8.82014 12.6165C9.04793 12.7391 9.27573 12.8485 9.50353 12.9445C9.73133 13.0412 9.96789 13.0896 10.2132 13.0896C10.4585 13.0896 10.6996 13.037 10.9366 12.9319C11.1728 12.8267 11.4048 12.7128 11.6326 12.5902L17.5728 9.38348V13.3787C17.5728 13.7817 17.4764 14.1455 17.2837 14.4701C17.0909 14.7939 16.8193 15.0522 16.4689 15.2449L11.212 18.0836C11.0543 18.1713 10.8924 18.2371 10.7263 18.2813C10.5595 18.3248 10.3884 18.3465 10.2132 18.3465Z"/>
</svg>
